<svg width="375" height="399" viewBox="0 0 375 399" fill="none" xmlns="http://www.w3.org/2000/svg">
<g filter="url(#filter0_f_501_3)">
<path d="M220.703 205.413C246.773 169.005 291.741 140.272 366.065 141.568C367.776 171.894 360.999 216.619 335.161 253.118C309.24 289.735 264.072 318.163 188.757 315.388C187.458 285.684 194.723 241.697 220.703 205.413Z" fill="#ED6573" fill-opacity="0.1" stroke="#EF7D7E" stroke-width="1.5"/>
<path d="M155.484 205.413C129.415 169.005 84.4464 140.272 10.123 141.568C8.41148 171.894 15.1884 216.619 41.0262 253.118C66.9479 289.735 112.116 318.163 187.431 315.388C188.73 285.684 181.465 241.697 155.484 205.413Z" fill="#ED6573" fill-opacity="0.1" stroke="#EF7D7E" stroke-width="1.5"/>
<path d="M243.058 214.359C250.329 170.152 238.817 117.988 185.347 66.2674C162.726 86.4988 135.942 122.923 128.444 167.03C120.92 211.28 132.788 263.37 188.004 314.746C209.894 294.662 235.812 258.415 243.058 214.359Z" fill="#ED6573" fill-opacity="0.1" stroke="#EF7D7E" stroke-width="1.5"/>
</g>
<path d="M219.238 205.066C244.095 170.351 286.972 142.949 357.841 144.177C359.467 173.099 352.999 215.737 328.366 250.533C303.65 285.448 260.583 312.559 188.768 309.921C187.536 281.591 194.469 239.658 219.238 205.066Z" fill="#0F2C3A" stroke="#EF7D7E" stroke-width="1.5"/>
<path d="M156.973 205.066C132.116 170.351 89.2392 142.949 18.37 144.177C16.7442 173.099 23.2123 215.737 47.8448 250.533C72.5613 285.448 115.628 312.559 187.443 309.921C188.675 281.591 181.742 239.658 156.973 205.066Z" fill="#0F2C3A" stroke="#EF7D7E" stroke-width="1.5"/>
<path d="M240.501 213.574C247.434 171.423 236.461 121.681 185.482 72.3588C163.913 91.6586 138.384 126.388 131.235 168.437C124.062 210.63 135.374 260.3 188.018 309.295C208.89 290.136 233.593 255.575 240.501 213.574Z" fill="#0F2C3A" stroke="#EF7D7E" stroke-width="1.5"/>
<g filter="url(#filter1_f_501_3)">
<ellipse cx="188" cy="199.426" rx="98.4375" ry="98.5899" fill="#0F2C3A" fill-opacity="0.3"/>
</g>
<rect width="450" height="228" transform="matrix(1 0 0 -1 -37 371)" fill="url(#paint0_linear_501_3)"/>
<path d="M144.421 159.144V190H138.037V186.36C137.029 187.629 135.704 188.637 134.061 189.384C132.456 190.093 130.739 190.448 128.909 190.448C126.483 190.448 124.299 189.944 122.357 188.936C120.453 187.928 118.941 186.435 117.821 184.456C116.739 182.477 116.197 180.088 116.197 177.288V159.144H122.525V176.336C122.525 179.099 123.216 181.227 124.597 182.72C125.979 184.176 127.864 184.904 130.253 184.904C132.643 184.904 134.528 184.176 135.909 182.72C137.328 181.227 138.037 179.099 138.037 176.336V159.144H144.421ZM165.053 174.6L179.277 190H170.653L159.229 176.728V190H152.845V148.56H159.229V172.64L170.429 159.144H179.277L165.053 174.6ZM187.1 155.056C185.943 155.056 184.972 154.664 184.188 153.88C183.404 153.096 183.012 152.125 183.012 150.968C183.012 149.811 183.404 148.84 184.188 148.056C184.972 147.272 185.943 146.88 187.1 146.88C188.22 146.88 189.172 147.272 189.956 148.056C190.74 148.84 191.132 149.811 191.132 150.968C191.132 152.125 190.74 153.096 189.956 153.88C189.172 154.664 188.22 155.056 187.1 155.056ZM190.236 159.144V190H183.852V159.144H190.236ZM226.394 159.144L207.466 204.504H200.858L207.13 189.496L194.978 159.144H202.09L210.77 182.664L219.786 159.144H226.394ZM244.596 190.504C241.684 190.504 239.052 189.851 236.7 188.544C234.348 187.2 232.5 185.333 231.156 182.944C229.812 180.517 229.14 177.717 229.14 174.544C229.14 171.408 229.83 168.627 231.212 166.2C232.593 163.773 234.478 161.907 236.868 160.6C239.257 159.293 241.926 158.64 244.876 158.64C247.825 158.64 250.494 159.293 252.884 160.6C255.273 161.907 257.158 163.773 258.54 166.2C259.921 168.627 260.612 171.408 260.612 174.544C260.612 177.68 259.902 180.461 258.484 182.888C257.065 185.315 255.124 187.2 252.66 188.544C250.233 189.851 247.545 190.504 244.596 190.504ZM244.596 184.96C246.238 184.96 247.769 184.568 249.188 183.784C250.644 183 251.82 181.824 252.716 180.256C253.612 178.688 254.06 176.784 254.06 174.544C254.06 172.304 253.63 170.419 252.772 168.888C251.913 167.32 250.774 166.144 249.356 165.36C247.937 164.576 246.406 164.184 244.764 164.184C243.121 164.184 241.59 164.576 240.172 165.36C238.79 166.144 237.689 167.32 236.868 168.888C236.046 170.419 235.636 172.304 235.636 174.544C235.636 177.867 236.476 180.443 238.156 182.272C239.873 184.064 242.02 184.96 244.596 184.96Z" fill="white"/>
<path d="M102.861 217.672C102.861 219.651 102.395 221.517 101.461 223.272C100.528 225.027 99.0346 226.464 96.9813 227.584C94.928 228.667 92.296 229.208 89.0853 229.208H82.0293V245H75.6453V206.08H89.0853C92.072 206.08 94.592 206.603 96.6453 207.648C98.736 208.656 100.285 210.037 101.293 211.792C102.339 213.547 102.861 215.507 102.861 217.672ZM89.0853 224C91.512 224 93.3226 223.459 94.5173 222.376C95.712 221.256 96.3093 219.688 96.3093 217.672C96.3093 213.416 93.9013 211.288 89.0853 211.288H82.0293V224H89.0853ZM115.334 218.624C116.267 217.056 117.499 215.843 119.03 214.984C120.598 214.088 122.446 213.64 124.574 213.64V220.248H122.95C120.449 220.248 118.545 220.883 117.238 222.152C115.969 223.421 115.334 225.624 115.334 228.76V245H108.95V214.144H115.334V218.624ZM143.826 245.504C140.914 245.504 138.282 244.851 135.93 243.544C133.578 242.2 131.73 240.333 130.386 237.944C129.042 235.517 128.37 232.717 128.37 229.544C128.37 226.408 129.061 223.627 130.442 221.2C131.824 218.773 133.709 216.907 136.098 215.6C138.488 214.293 141.157 213.64 144.106 213.64C147.056 213.64 149.725 214.293 152.114 215.6C154.504 216.907 156.389 218.773 157.77 221.2C159.152 223.627 159.842 226.408 159.842 229.544C159.842 232.68 159.133 235.461 157.714 237.888C156.296 240.315 154.354 242.2 151.89 243.544C149.464 244.851 146.776 245.504 143.826 245.504ZM143.826 239.96C145.469 239.96 147 239.568 148.418 238.784C149.874 238 151.05 236.824 151.946 235.256C152.842 233.688 153.29 231.784 153.29 229.544C153.29 227.304 152.861 225.419 152.002 223.888C151.144 222.32 150.005 221.144 148.586 220.36C147.168 219.576 145.637 219.184 143.994 219.184C142.352 219.184 140.821 219.576 139.402 220.36C138.021 221.144 136.92 222.32 136.098 223.888C135.277 225.419 134.866 227.304 134.866 229.544C134.866 232.867 135.706 235.443 137.386 237.272C139.104 239.064 141.25 239.96 143.826 239.96ZM173.601 219.352V236.432C173.601 237.589 173.862 238.429 174.385 238.952C174.945 239.437 175.878 239.68 177.185 239.68H181.105V245H176.065C173.19 245 170.988 244.328 169.457 242.984C167.926 241.64 167.161 239.456 167.161 236.432V219.352H163.521V214.144H167.161V206.472H173.601V214.144H181.105V219.352H173.601ZM200.373 245.504C197.461 245.504 194.829 244.851 192.477 243.544C190.125 242.2 188.277 240.333 186.933 237.944C185.589 235.517 184.917 232.717 184.917 229.544C184.917 226.408 185.608 223.627 186.989 221.2C188.37 218.773 190.256 216.907 192.645 215.6C195.034 214.293 197.704 213.64 200.653 213.64C203.602 213.64 206.272 214.293 208.661 215.6C211.05 216.907 212.936 218.773 214.317 221.2C215.698 223.627 216.389 226.408 216.389 229.544C216.389 232.68 215.68 235.461 214.261 237.888C212.842 240.315 210.901 242.2 208.437 243.544C206.01 244.851 203.322 245.504 200.373 245.504ZM200.373 239.96C202.016 239.96 203.546 239.568 204.965 238.784C206.421 238 207.597 236.824 208.493 235.256C209.389 233.688 209.837 231.784 209.837 229.544C209.837 227.304 209.408 225.419 208.549 223.888C207.69 222.32 206.552 221.144 205.133 220.36C203.714 219.576 202.184 219.184 200.541 219.184C198.898 219.184 197.368 219.576 195.949 220.36C194.568 221.144 193.466 222.32 192.645 223.888C191.824 225.419 191.413 227.304 191.413 229.544C191.413 232.867 192.253 235.443 193.933 237.272C195.65 239.064 197.797 239.96 200.373 239.96ZM220.572 229.544C220.572 226.371 221.207 223.589 222.476 221.2C223.783 218.773 225.575 216.907 227.852 215.6C230.129 214.293 232.743 213.64 235.692 213.64C239.425 213.64 242.505 214.536 244.932 216.328C247.396 218.083 249.057 220.603 249.916 223.888H243.028C242.468 222.357 241.572 221.163 240.34 220.304C239.108 219.445 237.559 219.016 235.692 219.016C233.079 219.016 230.988 219.949 229.42 221.816C227.889 223.645 227.124 226.221 227.124 229.544C227.124 232.867 227.889 235.461 229.42 237.328C230.988 239.195 233.079 240.128 235.692 240.128C239.388 240.128 241.833 238.504 243.028 235.256H249.916C249.02 238.392 247.34 240.893 244.876 242.76C242.412 244.589 239.351 245.504 235.692 245.504C232.743 245.504 230.129 244.851 227.852 243.544C225.575 242.2 223.783 240.333 222.476 237.944C221.207 235.517 220.572 232.717 220.572 229.544ZM269.662 245.504C266.75 245.504 264.118 244.851 261.766 243.544C259.414 242.2 257.566 240.333 256.222 237.944C254.878 235.517 254.206 232.717 254.206 229.544C254.206 226.408 254.897 223.627 256.278 221.2C257.659 218.773 259.545 216.907 261.934 215.6C264.323 214.293 266.993 213.64 269.942 213.64C272.891 213.64 275.561 214.293 277.95 215.6C280.339 216.907 282.225 218.773 283.606 221.2C284.987 223.627 285.678 226.408 285.678 229.544C285.678 232.68 284.969 235.461 283.55 237.888C282.131 240.315 280.19 242.2 277.726 243.544C275.299 244.851 272.611 245.504 269.662 245.504ZM269.662 239.96C271.305 239.96 272.835 239.568 274.254 238.784C275.71 238 276.886 236.824 277.782 235.256C278.678 233.688 279.126 231.784 279.126 229.544C279.126 227.304 278.697 225.419 277.838 223.888C276.979 222.32 275.841 221.144 274.422 220.36C273.003 219.576 271.473 219.184 269.83 219.184C268.187 219.184 266.657 219.576 265.238 220.36C263.857 221.144 262.755 222.32 261.934 223.888C261.113 225.419 260.702 227.304 260.702 229.544C260.702 232.867 261.542 235.443 263.222 237.272C264.939 239.064 267.086 239.96 269.662 239.96ZM298.373 203.56V245H291.989V203.56H298.373Z" fill="white"/>
<path d="M45.5009 268.848C46.7169 268.848 47.7675 269.077 48.6529 269.536C49.5489 269.984 50.2315 270.629 50.7009 271.472C51.1809 272.315 51.4209 273.307 51.4209 274.448C51.4209 275.589 51.1809 276.581 50.7009 277.424C50.2315 278.256 49.5489 278.896 48.6529 279.344C47.7675 279.781 46.7169 280 45.5009 280H42.0289V268.848H45.5009ZM45.5009 278.8C46.9409 278.8 48.0395 278.421 48.7969 277.664C49.5542 276.896 49.9329 275.824 49.9329 274.448C49.9329 273.061 49.5489 271.979 48.7809 271.2C48.0235 270.421 46.9302 270.032 45.5009 270.032H43.4849V278.8H45.5009ZM54.0934 269.808C53.816 269.808 53.5814 269.712 53.3894 269.52C53.1974 269.328 53.1014 269.093 53.1014 268.816C53.1014 268.539 53.1974 268.304 53.3894 268.112C53.5814 267.92 53.816 267.824 54.0934 267.824C54.36 267.824 54.584 267.92 54.7654 268.112C54.9574 268.304 55.0534 268.539 55.0534 268.816C55.0534 269.093 54.9574 269.328 54.7654 269.52C54.584 269.712 54.36 269.808 54.0934 269.808ZM54.7974 271.232V280H53.3414V271.232H54.7974ZM60.3829 280.144C59.7109 280.144 59.1082 280.032 58.5749 279.808C58.0415 279.573 57.6202 279.253 57.3109 278.848C57.0015 278.432 56.8309 277.957 56.7989 277.424H58.3029C58.3455 277.861 58.5482 278.219 58.9109 278.496C59.2842 278.773 59.7695 278.912 60.3669 278.912C60.9215 278.912 61.3589 278.789 61.6789 278.544C61.9989 278.299 62.1589 277.989 62.1589 277.616C62.1589 277.232 61.9882 276.949 61.6469 276.768C61.3055 276.576 60.7775 276.389 60.0629 276.208C59.4122 276.037 58.8789 275.867 58.4629 275.696C58.0575 275.515 57.7055 275.253 57.4069 274.912C57.1189 274.56 56.9749 274.101 56.9749 273.536C56.9749 273.088 57.1082 272.677 57.3749 272.304C57.6415 271.931 58.0202 271.637 58.5109 271.424C59.0015 271.2 59.5615 271.088 60.1909 271.088C61.1615 271.088 61.9455 271.333 62.5429 271.824C63.1402 272.315 63.4602 272.987 63.5029 273.84H62.0469C62.0149 273.381 61.8282 273.013 61.4869 272.736C61.1562 272.459 60.7082 272.32 60.1429 272.32C59.6202 272.32 59.2042 272.432 58.8949 272.656C58.5855 272.88 58.4309 273.173 58.4309 273.536C58.4309 273.824 58.5215 274.064 58.7029 274.256C58.8949 274.437 59.1295 274.587 59.4069 274.704C59.6949 274.811 60.0895 274.933 60.5909 275.072C61.2202 275.243 61.7322 275.413 62.1269 275.584C62.5215 275.744 62.8575 275.989 63.1349 276.32C63.4229 276.651 63.5722 277.083 63.5829 277.616C63.5829 278.096 63.4495 278.528 63.1829 278.912C62.9162 279.296 62.5375 279.6 62.0469 279.824C61.5669 280.037 61.0122 280.144 60.3829 280.144ZM67.0943 272.656C67.3503 272.155 67.7129 271.765 68.1823 271.488C68.6623 271.211 69.2436 271.072 69.9263 271.072V272.576H69.5423C67.9103 272.576 67.0943 273.461 67.0943 275.232V280H65.6383V271.232H67.0943V272.656ZM79.383 271.232V280H77.927V278.704C77.6497 279.152 77.2603 279.504 76.759 279.76C76.2683 280.005 75.7243 280.128 75.127 280.128C74.4443 280.128 73.831 279.989 73.287 279.712C72.743 279.424 72.311 278.997 71.991 278.432C71.6817 277.867 71.527 277.179 71.527 276.368V271.232H72.967V276.176C72.967 277.04 73.1857 277.707 73.623 278.176C74.0603 278.635 74.6577 278.864 75.415 278.864C76.1937 278.864 76.807 278.624 77.255 278.144C77.703 277.664 77.927 276.965 77.927 276.048V271.232H79.383ZM83.2974 272.848C83.5854 272.347 84.012 271.931 84.5774 271.6C85.1534 271.259 85.82 271.088 86.5774 271.088C87.356 271.088 88.06 271.275 88.6894 271.648C89.3294 272.021 89.8307 272.549 90.1934 273.232C90.556 273.904 90.7374 274.688 90.7374 275.584C90.7374 276.469 90.556 277.259 90.1934 277.952C89.8307 278.645 89.3294 279.184 88.6894 279.568C88.06 279.952 87.356 280.144 86.5774 280.144C85.8307 280.144 85.1694 279.979 84.5934 279.648C84.028 279.307 83.596 278.885 83.2974 278.384V284.16H81.8414V271.232H83.2974V272.848ZM89.2494 275.584C89.2494 274.923 89.116 274.347 88.8494 273.856C88.5827 273.365 88.22 272.992 87.7614 272.736C87.3134 272.48 86.8174 272.352 86.2734 272.352C85.74 272.352 85.244 272.485 84.7854 272.752C84.3374 273.008 83.9747 273.387 83.6974 273.888C83.4307 274.379 83.2974 274.949 83.2974 275.6C83.2974 276.261 83.4307 276.843 83.6974 277.344C83.9747 277.835 84.3374 278.213 84.7854 278.48C85.244 278.736 85.74 278.864 86.2734 278.864C86.8174 278.864 87.3134 278.736 87.7614 278.48C88.22 278.213 88.5827 277.835 88.8494 277.344C89.116 276.843 89.2494 276.256 89.2494 275.584ZM94.4299 272.432V277.6C94.4299 278.027 94.5205 278.331 94.7019 278.512C94.8832 278.683 95.1979 278.768 95.6459 278.768H96.7179V280H95.4059C94.5952 280 93.9872 279.813 93.5819 279.44C93.1765 279.067 92.9739 278.453 92.9739 277.6V272.432H91.8379V271.232H92.9739V269.024H94.4299V271.232H96.7179V272.432H94.4299ZM99.234 269.808C98.9567 269.808 98.722 269.712 98.53 269.52C98.338 269.328 98.242 269.093 98.242 268.816C98.242 268.539 98.338 268.304 98.53 268.112C98.722 267.92 98.9567 267.824 99.234 267.824C99.5007 267.824 99.7247 267.92 99.906 268.112C100.098 268.304 100.194 268.539 100.194 268.816C100.194 269.093 100.098 269.328 99.906 269.52C99.7247 269.712 99.5007 269.808 99.234 269.808ZM99.938 271.232V280H98.482V271.232H99.938ZM106.692 271.072C107.758 271.072 108.622 271.397 109.284 272.048C109.945 272.688 110.276 273.616 110.276 274.832V280H108.836V275.04C108.836 274.165 108.617 273.499 108.18 273.04C107.742 272.571 107.145 272.336 106.388 272.336C105.62 272.336 105.006 272.576 104.548 273.056C104.1 273.536 103.876 274.235 103.876 275.152V280H102.42V271.232H103.876V272.48C104.164 272.032 104.553 271.685 105.044 271.44C105.545 271.195 106.094 271.072 106.692 271.072ZM116.27 271.088C117.027 271.088 117.689 271.253 118.254 271.584C118.83 271.915 119.257 272.331 119.534 272.832V271.232H121.006V280.192C121.006 280.992 120.835 281.701 120.494 282.32C120.153 282.949 119.662 283.44 119.022 283.792C118.393 284.144 117.657 284.32 116.814 284.32C115.662 284.32 114.702 284.048 113.934 283.504C113.166 282.96 112.713 282.219 112.574 281.28H114.014C114.174 281.813 114.505 282.24 115.006 282.56C115.507 282.891 116.11 283.056 116.814 283.056C117.614 283.056 118.265 282.805 118.766 282.304C119.278 281.803 119.534 281.099 119.534 280.192V278.352C119.246 278.864 118.819 279.291 118.254 279.632C117.689 279.973 117.027 280.144 116.27 280.144C115.491 280.144 114.782 279.952 114.142 279.568C113.513 279.184 113.017 278.645 112.654 277.952C112.291 277.259 112.11 276.469 112.11 275.584C112.11 274.688 112.291 273.904 112.654 273.232C113.017 272.549 113.513 272.021 114.142 271.648C114.782 271.275 115.491 271.088 116.27 271.088ZM119.534 275.6C119.534 274.939 119.401 274.363 119.134 273.872C118.867 273.381 118.505 273.008 118.046 272.752C117.598 272.485 117.102 272.352 116.558 272.352C116.014 272.352 115.518 272.48 115.07 272.736C114.622 272.992 114.265 273.365 113.998 273.856C113.731 274.347 113.598 274.923 113.598 275.584C113.598 276.256 113.731 276.843 113.998 277.344C114.265 277.835 114.622 278.213 115.07 278.48C115.518 278.736 116.014 278.864 116.558 278.864C117.102 278.864 117.598 278.736 118.046 278.48C118.505 278.213 118.867 277.835 119.134 277.344C119.401 276.843 119.534 276.261 119.534 275.6ZM129.508 272.432V277.6C129.508 278.027 129.599 278.331 129.78 278.512C129.961 278.683 130.276 278.768 130.724 278.768H131.796V280H130.484C129.673 280 129.065 279.813 128.66 279.44C128.255 279.067 128.052 278.453 128.052 277.6V272.432H126.916V271.232H128.052V269.024H129.508V271.232H131.796V272.432H129.508ZM137.912 271.072C138.573 271.072 139.171 271.216 139.704 271.504C140.237 271.781 140.653 272.203 140.952 272.768C141.261 273.333 141.416 274.021 141.416 274.832V280H139.976V275.04C139.976 274.165 139.757 273.499 139.32 273.04C138.883 272.571 138.285 272.336 137.528 272.336C136.76 272.336 136.147 272.576 135.688 273.056C135.24 273.536 135.016 274.235 135.016 275.152V280H133.56V268.16H135.016V272.48C135.304 272.032 135.699 271.685 136.2 271.44C136.712 271.195 137.283 271.072 137.912 271.072ZM151.795 275.28C151.795 275.557 151.779 275.851 151.747 276.16H144.739C144.792 277.024 145.085 277.701 145.619 278.192C146.163 278.672 146.819 278.912 147.587 278.912C148.216 278.912 148.739 278.768 149.155 278.48C149.581 278.181 149.88 277.787 150.051 277.296H151.619C151.384 278.139 150.915 278.827 150.211 279.36C149.507 279.883 148.632 280.144 147.587 280.144C146.755 280.144 146.008 279.957 145.347 279.584C144.696 279.211 144.184 278.683 143.811 278C143.437 277.307 143.251 276.507 143.251 275.6C143.251 274.693 143.432 273.899 143.795 273.216C144.157 272.533 144.664 272.011 145.315 271.648C145.976 271.275 146.733 271.088 147.587 271.088C148.419 271.088 149.155 271.269 149.795 271.632C150.435 271.995 150.925 272.496 151.267 273.136C151.619 273.765 151.795 274.48 151.795 275.28ZM150.291 274.976C150.291 274.421 150.168 273.947 149.923 273.552C149.677 273.147 149.341 272.843 148.915 272.64C148.499 272.427 148.035 272.32 147.523 272.32C146.787 272.32 146.157 272.555 145.635 273.024C145.123 273.493 144.829 274.144 144.755 274.976H150.291ZM169.662 271.232L166.926 280H165.422L163.31 273.04L161.198 280H159.694L156.942 271.232H158.43L160.446 278.592L162.622 271.232H164.11L166.238 278.608L168.222 271.232H169.662ZM170.563 275.584C170.563 274.688 170.744 273.904 171.107 273.232C171.47 272.549 171.966 272.021 172.595 271.648C173.235 271.275 173.944 271.088 174.723 271.088C175.491 271.088 176.158 271.253 176.723 271.584C177.288 271.915 177.71 272.331 177.987 272.832V271.232H179.459V280H177.987V278.368C177.699 278.88 177.267 279.307 176.691 279.648C176.126 279.979 175.464 280.144 174.707 280.144C173.928 280.144 173.224 279.952 172.595 279.568C171.966 279.184 171.47 278.645 171.107 277.952C170.744 277.259 170.563 276.469 170.563 275.584ZM177.987 275.6C177.987 274.939 177.854 274.363 177.587 273.872C177.32 273.381 176.958 273.008 176.499 272.752C176.051 272.485 175.555 272.352 175.011 272.352C174.467 272.352 173.971 272.48 173.523 272.736C173.075 272.992 172.718 273.365 172.451 273.856C172.184 274.347 172.051 274.923 172.051 275.584C172.051 276.256 172.184 276.843 172.451 277.344C172.718 277.835 173.075 278.213 173.523 278.48C173.971 278.736 174.467 278.864 175.011 278.864C175.555 278.864 176.051 278.736 176.499 278.48C176.958 278.213 177.32 277.835 177.587 277.344C177.854 276.843 177.987 276.261 177.987 275.6ZM189.472 271.232L184.192 284.128H182.688L184.416 279.904L180.88 271.232H182.496L185.248 278.336L187.968 271.232H189.472ZM202.753 271.232L197.473 284.128H195.969L197.697 279.904L194.161 271.232H195.777L198.529 278.336L201.249 271.232H202.753ZM208.04 280.144C207.219 280.144 206.472 279.957 205.8 279.584C205.139 279.211 204.616 278.683 204.232 278C203.859 277.307 203.672 276.507 203.672 275.6C203.672 274.704 203.864 273.915 204.248 273.232C204.643 272.539 205.176 272.011 205.848 271.648C206.52 271.275 207.272 271.088 208.104 271.088C208.936 271.088 209.688 271.275 210.36 271.648C211.032 272.011 211.56 272.533 211.944 273.216C212.339 273.899 212.536 274.693 212.536 275.6C212.536 276.507 212.334 277.307 211.928 278C211.534 278.683 210.995 279.211 210.312 279.584C209.63 279.957 208.872 280.144 208.04 280.144ZM208.04 278.864C208.563 278.864 209.054 278.741 209.512 278.496C209.971 278.251 210.339 277.883 210.616 277.392C210.904 276.901 211.048 276.304 211.048 275.6C211.048 274.896 210.91 274.299 210.632 273.808C210.355 273.317 209.992 272.955 209.544 272.72C209.096 272.475 208.611 272.352 208.088 272.352C207.555 272.352 207.064 272.475 206.616 272.72C206.179 272.955 205.827 273.317 205.56 273.808C205.294 274.299 205.16 274.896 205.16 275.6C205.16 276.315 205.288 276.917 205.544 277.408C205.811 277.899 206.163 278.267 206.6 278.512C207.038 278.747 207.518 278.864 208.04 278.864ZM222.227 271.232V280H220.771V278.704C220.493 279.152 220.104 279.504 219.603 279.76C219.112 280.005 218.568 280.128 217.971 280.128C217.288 280.128 216.675 279.989 216.131 279.712C215.587 279.424 215.155 278.997 214.835 278.432C214.525 277.867 214.371 277.179 214.371 276.368V271.232H215.811V276.176C215.811 277.04 216.029 277.707 216.467 278.176C216.904 278.635 217.501 278.864 218.259 278.864C219.037 278.864 219.651 278.624 220.099 278.144C220.547 277.664 220.771 276.965 220.771 276.048V271.232H222.227ZM226.141 272.656C226.397 272.155 226.76 271.765 227.229 271.488C227.709 271.211 228.29 271.072 228.973 271.072V272.576H228.589C226.957 272.576 226.141 273.461 226.141 275.232V280H224.685V271.232H226.141V272.656ZM234.376 275.584C234.376 274.688 234.557 273.904 234.92 273.232C235.282 272.549 235.778 272.021 236.408 271.648C237.048 271.275 237.757 271.088 238.536 271.088C239.304 271.088 239.97 271.253 240.536 271.584C241.101 271.915 241.522 272.331 241.8 272.832V271.232H243.272V280H241.8V278.368C241.512 278.88 241.08 279.307 240.504 279.648C239.938 279.979 239.277 280.144 238.52 280.144C237.741 280.144 237.037 279.952 236.408 279.568C235.778 279.184 235.282 278.645 234.92 277.952C234.557 277.259 234.376 276.469 234.376 275.584ZM241.8 275.6C241.8 274.939 241.666 274.363 241.4 273.872C241.133 273.381 240.77 273.008 240.312 272.752C239.864 272.485 239.368 272.352 238.824 272.352C238.28 272.352 237.784 272.48 237.336 272.736C236.888 272.992 236.53 273.365 236.264 273.856C235.997 274.347 235.864 274.923 235.864 275.584C235.864 276.256 235.997 276.843 236.264 277.344C236.53 277.835 236.888 278.213 237.336 278.48C237.784 278.736 238.28 278.864 238.824 278.864C239.368 278.864 239.864 278.736 240.312 278.48C240.77 278.213 241.133 277.835 241.4 277.344C241.666 276.843 241.8 276.261 241.8 275.6ZM248.836 280.144C248.164 280.144 247.561 280.032 247.028 279.808C246.495 279.573 246.073 279.253 245.764 278.848C245.455 278.432 245.284 277.957 245.252 277.424H246.756C246.799 277.861 247.001 278.219 247.364 278.496C247.737 278.773 248.223 278.912 248.82 278.912C249.375 278.912 249.812 278.789 250.132 278.544C250.452 278.299 250.612 277.989 250.612 277.616C250.612 277.232 250.441 276.949 250.1 276.768C249.759 276.576 249.231 276.389 248.516 276.208C247.865 276.037 247.332 275.867 246.916 275.696C246.511 275.515 246.159 275.253 245.86 274.912C245.572 274.56 245.428 274.101 245.428 273.536C245.428 273.088 245.561 272.677 245.828 272.304C246.095 271.931 246.473 271.637 246.964 271.424C247.455 271.2 248.015 271.088 248.644 271.088C249.615 271.088 250.399 271.333 250.996 271.824C251.593 272.315 251.913 272.987 251.956 273.84H250.5C250.468 273.381 250.281 273.013 249.94 272.736C249.609 272.459 249.161 272.32 248.596 272.32C248.073 272.32 247.657 272.432 247.348 272.656C247.039 272.88 246.884 273.173 246.884 273.536C246.884 273.824 246.975 274.064 247.156 274.256C247.348 274.437 247.583 274.587 247.86 274.704C248.148 274.811 248.543 274.933 249.044 275.072C249.673 275.243 250.185 275.413 250.58 275.584C250.975 275.744 251.311 275.989 251.588 276.32C251.876 276.651 252.025 277.083 252.036 277.616C252.036 278.096 251.903 278.528 251.636 278.912C251.369 279.296 250.991 279.6 250.5 279.824C250.02 280.037 249.465 280.144 248.836 280.144ZM257.195 280.144C256.523 280.144 255.921 280.032 255.387 279.808C254.854 279.573 254.433 279.253 254.123 278.848C253.814 278.432 253.643 277.957 253.611 277.424H255.115C255.158 277.861 255.361 278.219 255.723 278.496C256.097 278.773 256.582 278.912 257.179 278.912C257.734 278.912 258.171 278.789 258.491 278.544C258.811 278.299 258.971 277.989 258.971 277.616C258.971 277.232 258.801 276.949 258.459 276.768C258.118 276.576 257.59 276.389 256.875 276.208C256.225 276.037 255.691 275.867 255.275 275.696C254.87 275.515 254.518 275.253 254.219 274.912C253.931 274.56 253.787 274.101 253.787 273.536C253.787 273.088 253.921 272.677 254.187 272.304C254.454 271.931 254.833 271.637 255.323 271.424C255.814 271.2 256.374 271.088 257.003 271.088C257.974 271.088 258.758 271.333 259.355 271.824C259.953 272.315 260.273 272.987 260.315 273.84H258.859C258.827 273.381 258.641 273.013 258.299 272.736C257.969 272.459 257.521 272.32 256.955 272.32C256.433 272.32 256.017 272.432 255.707 272.656C255.398 272.88 255.243 273.173 255.243 273.536C255.243 273.824 255.334 274.064 255.515 274.256C255.707 274.437 255.942 274.587 256.219 274.704C256.507 274.811 256.902 274.933 257.403 275.072C258.033 275.243 258.545 275.413 258.939 275.584C259.334 275.744 259.67 275.989 259.947 276.32C260.235 276.651 260.385 277.083 260.395 277.616C260.395 278.096 260.262 278.528 259.995 278.912C259.729 279.296 259.35 279.6 258.859 279.824C258.379 280.037 257.825 280.144 257.195 280.144ZM270.451 275.28C270.451 275.557 270.435 275.851 270.403 276.16H263.395C263.448 277.024 263.741 277.701 264.275 278.192C264.819 278.672 265.475 278.912 266.243 278.912C266.872 278.912 267.395 278.768 267.811 278.48C268.237 278.181 268.536 277.787 268.707 277.296H270.275C270.04 278.139 269.571 278.827 268.867 279.36C268.163 279.883 267.288 280.144 266.243 280.144C265.411 280.144 264.664 279.957 264.003 279.584C263.352 279.211 262.84 278.683 262.467 278C262.093 277.307 261.907 276.507 261.907 275.6C261.907 274.693 262.088 273.899 262.451 273.216C262.813 272.533 263.32 272.011 263.971 271.648C264.632 271.275 265.389 271.088 266.243 271.088C267.075 271.088 267.811 271.269 268.451 271.632C269.091 271.995 269.581 272.496 269.923 273.136C270.275 273.765 270.451 274.48 270.451 275.28ZM268.947 274.976C268.947 274.421 268.824 273.947 268.579 273.552C268.333 273.147 267.997 272.843 267.571 272.64C267.155 272.427 266.691 272.32 266.179 272.32C265.443 272.32 264.813 272.555 264.291 273.024C263.779 273.493 263.485 274.144 263.411 274.976H268.947ZM274.149 272.432V277.6C274.149 278.027 274.239 278.331 274.421 278.512C274.602 278.683 274.917 278.768 275.365 278.768H276.437V280H275.125C274.314 280 273.706 279.813 273.301 279.44C272.895 279.067 272.693 278.453 272.693 277.6V272.432H271.557V271.232H272.693V269.024H274.149V271.232H276.437V272.432H274.149ZM281.305 280.144C280.633 280.144 280.03 280.032 279.497 279.808C278.963 279.573 278.542 279.253 278.233 278.848C277.923 278.432 277.753 277.957 277.721 277.424H279.225C279.267 277.861 279.47 278.219 279.833 278.496C280.206 278.773 280.691 278.912 281.289 278.912C281.843 278.912 282.281 278.789 282.601 278.544C282.921 278.299 283.081 277.989 283.081 277.616C283.081 277.232 282.91 276.949 282.569 276.768C282.227 276.576 281.699 276.389 280.985 276.208C280.334 276.037 279.801 275.867 279.385 275.696C278.979 275.515 278.627 275.253 278.329 274.912C278.041 274.56 277.897 274.101 277.897 273.536C277.897 273.088 278.03 272.677 278.297 272.304C278.563 271.931 278.942 271.637 279.433 271.424C279.923 271.2 280.483 271.088 281.113 271.088C282.083 271.088 282.867 271.333 283.465 271.824C284.062 272.315 284.382 272.987 284.425 273.84H282.969C282.937 273.381 282.75 273.013 282.409 272.736C282.078 272.459 281.63 272.32 281.065 272.32C280.542 272.32 280.126 272.432 279.817 272.656C279.507 272.88 279.353 273.173 279.353 273.536C279.353 273.824 279.443 274.064 279.625 274.256C279.817 274.437 280.051 274.587 280.329 274.704C280.617 274.811 281.011 274.933 281.513 275.072C282.142 275.243 282.654 275.413 283.049 275.584C283.443 275.744 283.779 275.989 284.057 276.32C284.345 276.651 284.494 277.083 284.505 277.616C284.505 278.096 284.371 278.528 284.105 278.912C283.838 279.296 283.459 279.6 282.969 279.824C282.489 280.037 281.934 280.144 281.305 280.144ZM301.37 271.072C302.052 271.072 302.66 271.216 303.194 271.504C303.727 271.781 304.148 272.203 304.458 272.768C304.767 273.333 304.922 274.021 304.922 274.832V280H303.482V275.04C303.482 274.165 303.263 273.499 302.826 273.04C302.399 272.571 301.818 272.336 301.082 272.336C300.324 272.336 299.722 272.581 299.274 273.072C298.826 273.552 298.602 274.251 298.602 275.168V280H297.162V275.04C297.162 274.165 296.943 273.499 296.506 273.04C296.079 272.571 295.498 272.336 294.762 272.336C294.004 272.336 293.402 272.581 292.954 273.072C292.506 273.552 292.282 274.251 292.282 275.168V280H290.826V271.232H292.282V272.496C292.57 272.037 292.954 271.685 293.434 271.44C293.924 271.195 294.463 271.072 295.05 271.072C295.786 271.072 296.436 271.237 297.002 271.568C297.567 271.899 297.988 272.384 298.266 273.024C298.511 272.405 298.916 271.925 299.482 271.584C300.047 271.243 300.676 271.072 301.37 271.072ZM311.134 280.144C310.313 280.144 309.566 279.957 308.894 279.584C308.233 279.211 307.71 278.683 307.326 278C306.953 277.307 306.766 276.507 306.766 275.6C306.766 274.704 306.958 273.915 307.342 273.232C307.737 272.539 308.27 272.011 308.942 271.648C309.614 271.275 310.366 271.088 311.198 271.088C312.03 271.088 312.782 271.275 313.454 271.648C314.126 272.011 314.654 272.533 315.038 273.216C315.433 273.899 315.63 274.693 315.63 275.6C315.63 276.507 315.427 277.307 315.022 278C314.627 278.683 314.089 279.211 313.406 279.584C312.723 279.957 311.966 280.144 311.134 280.144ZM311.134 278.864C311.657 278.864 312.147 278.741 312.606 278.496C313.065 278.251 313.433 277.883 313.71 277.392C313.998 276.901 314.142 276.304 314.142 275.6C314.142 274.896 314.003 274.299 313.726 273.808C313.449 273.317 313.086 272.955 312.638 272.72C312.19 272.475 311.705 272.352 311.182 272.352C310.649 272.352 310.158 272.475 309.71 272.72C309.273 272.955 308.921 273.317 308.654 273.808C308.387 274.299 308.254 274.896 308.254 275.6C308.254 276.315 308.382 276.917 308.638 277.408C308.905 277.899 309.257 278.267 309.694 278.512C310.131 278.747 310.611 278.864 311.134 278.864ZM320.809 278.656L323.529 271.232H325.081L321.641 280H319.945L316.505 271.232H318.073L320.809 278.656ZM334.513 275.28C334.513 275.557 334.497 275.851 334.465 276.16H327.457C327.511 277.024 327.804 277.701 328.337 278.192C328.881 278.672 329.537 278.912 330.305 278.912C330.935 278.912 331.457 278.768 331.873 278.48C332.3 278.181 332.599 277.787 332.769 277.296H334.337C334.103 278.139 333.633 278.827 332.929 279.36C332.225 279.883 331.351 280.144 330.305 280.144C329.473 280.144 328.727 279.957 328.065 279.584C327.415 279.211 326.903 278.683 326.529 278C326.156 277.307 325.969 276.507 325.969 275.6C325.969 274.693 326.151 273.899 326.513 273.216C326.876 272.533 327.383 272.011 328.033 271.648C328.695 271.275 329.452 271.088 330.305 271.088C331.137 271.088 331.873 271.269 332.513 271.632C333.153 271.995 333.644 272.496 333.985 273.136C334.337 273.765 334.513 274.48 334.513 275.28ZM333.009 274.976C333.009 274.421 332.887 273.947 332.641 273.552C332.396 273.147 332.06 272.843 331.633 272.64C331.217 272.427 330.753 272.32 330.241 272.32C329.505 272.32 328.876 272.555 328.353 273.024C327.841 273.493 327.548 274.144 327.473 274.976H333.009ZM120.243 297.584C120.243 296.688 120.424 295.904 120.787 295.232C121.149 294.549 121.645 294.021 122.275 293.648C122.915 293.275 123.624 293.088 124.403 293.088C125.171 293.088 125.837 293.253 126.403 293.584C126.968 293.915 127.389 294.331 127.667 294.832V293.232H129.139V302H127.667V300.368C127.379 300.88 126.947 301.307 126.371 301.648C125.805 301.979 125.144 302.144 124.387 302.144C123.608 302.144 122.904 301.952 122.275 301.568C121.645 301.184 121.149 300.645 120.787 299.952C120.424 299.259 120.243 298.469 120.243 297.584ZM127.667 297.6C127.667 296.939 127.533 296.363 127.267 295.872C127 295.381 126.637 295.008 126.179 294.752C125.731 294.485 125.235 294.352 124.691 294.352C124.147 294.352 123.651 294.48 123.203 294.736C122.755 294.992 122.397 295.365 122.131 295.856C121.864 296.347 121.731 296.923 121.731 297.584C121.731 298.256 121.864 298.843 122.131 299.344C122.397 299.835 122.755 300.213 123.203 300.48C123.651 300.736 124.147 300.864 124.691 300.864C125.235 300.864 125.731 300.736 126.179 300.48C126.637 300.213 127 299.835 127.267 299.344C127.533 298.843 127.667 298.261 127.667 297.6ZM133.055 294.656C133.311 294.155 133.674 293.765 134.143 293.488C134.623 293.211 135.205 293.072 135.887 293.072V294.576H135.503C133.871 294.576 133.055 295.461 133.055 297.232V302H131.599V293.232H133.055V294.656ZM141.392 302.144C140.571 302.144 139.824 301.957 139.152 301.584C138.491 301.211 137.968 300.683 137.584 300C137.211 299.307 137.024 298.507 137.024 297.6C137.024 296.704 137.216 295.915 137.6 295.232C137.995 294.539 138.528 294.011 139.2 293.648C139.872 293.275 140.624 293.088 141.456 293.088C142.288 293.088 143.04 293.275 143.712 293.648C144.384 294.011 144.912 294.533 145.296 295.216C145.691 295.899 145.888 296.693 145.888 297.6C145.888 298.507 145.685 299.307 145.28 300C144.885 300.683 144.347 301.211 143.664 301.584C142.981 301.957 142.224 302.144 141.392 302.144ZM141.392 300.864C141.915 300.864 142.405 300.741 142.864 300.496C143.323 300.251 143.691 299.883 143.968 299.392C144.256 298.901 144.4 298.304 144.4 297.6C144.4 296.896 144.261 296.299 143.984 295.808C143.707 295.317 143.344 294.955 142.896 294.72C142.448 294.475 141.963 294.352 141.44 294.352C140.907 294.352 140.416 294.475 139.968 294.72C139.531 294.955 139.179 295.317 138.912 295.808C138.645 296.299 138.512 296.896 138.512 297.6C138.512 298.315 138.64 298.917 138.896 299.408C139.163 299.899 139.515 300.267 139.952 300.512C140.389 300.747 140.869 300.864 141.392 300.864ZM155.578 293.232V302H154.122V300.704C153.845 301.152 153.456 301.504 152.954 301.76C152.464 302.005 151.92 302.128 151.322 302.128C150.64 302.128 150.026 301.989 149.482 301.712C148.938 301.424 148.506 300.997 148.186 300.432C147.877 299.867 147.722 299.179 147.722 298.368V293.232H149.162V298.176C149.162 299.04 149.381 299.707 149.818 300.176C150.256 300.635 150.853 300.864 151.61 300.864C152.389 300.864 153.002 300.624 153.45 300.144C153.898 299.664 154.122 298.965 154.122 298.048V293.232H155.578ZM162.309 293.072C163.375 293.072 164.239 293.397 164.901 294.048C165.562 294.688 165.893 295.616 165.893 296.832V302H164.453V297.04C164.453 296.165 164.234 295.499 163.797 295.04C163.359 294.571 162.762 294.336 162.005 294.336C161.237 294.336 160.623 294.576 160.165 295.056C159.717 295.536 159.493 296.235 159.493 297.152V302H158.037V293.232H159.493V294.48C159.781 294.032 160.17 293.685 160.661 293.44C161.162 293.195 161.711 293.072 162.309 293.072ZM167.727 297.584C167.727 296.688 167.908 295.904 168.271 295.232C168.634 294.549 169.13 294.021 169.759 293.648C170.399 293.275 171.114 293.088 171.903 293.088C172.586 293.088 173.22 293.248 173.807 293.568C174.394 293.877 174.842 294.288 175.151 294.8V290.16H176.623V302H175.151V300.352C174.863 300.875 174.436 301.307 173.871 301.648C173.306 301.979 172.644 302.144 171.887 302.144C171.108 302.144 170.399 301.952 169.759 301.568C169.13 301.184 168.634 300.645 168.271 299.952C167.908 299.259 167.727 298.469 167.727 297.584ZM175.151 297.6C175.151 296.939 175.018 296.363 174.751 295.872C174.484 295.381 174.122 295.008 173.663 294.752C173.215 294.485 172.719 294.352 172.175 294.352C171.631 294.352 171.135 294.48 170.687 294.736C170.239 294.992 169.882 295.365 169.615 295.856C169.348 296.347 169.215 296.923 169.215 297.584C169.215 298.256 169.348 298.843 169.615 299.344C169.882 299.835 170.239 300.213 170.687 300.48C171.135 300.736 171.631 300.864 172.175 300.864C172.719 300.864 173.215 300.736 173.663 300.48C174.122 300.213 174.484 299.835 174.751 299.344C175.018 298.843 175.151 298.261 175.151 297.6ZM185.125 294.432V299.6C185.125 300.027 185.216 300.331 185.397 300.512C185.579 300.683 185.893 300.768 186.341 300.768H187.413V302H186.101C185.291 302 184.683 301.813 184.277 301.44C183.872 301.067 183.669 300.453 183.669 299.6V294.432H182.533V293.232H183.669V291.024H185.125V293.232H187.413V294.432H185.125ZM193.529 293.072C194.191 293.072 194.788 293.216 195.321 293.504C195.855 293.781 196.271 294.203 196.569 294.768C196.879 295.333 197.033 296.021 197.033 296.832V302H195.593V297.04C195.593 296.165 195.375 295.499 194.937 295.04C194.5 294.571 193.903 294.336 193.145 294.336C192.377 294.336 191.764 294.576 191.305 295.056C190.857 295.536 190.633 296.235 190.633 297.152V302H189.177V290.16H190.633V294.48C190.921 294.032 191.316 293.685 191.817 293.44C192.329 293.195 192.9 293.072 193.529 293.072ZM207.412 297.28C207.412 297.557 207.396 297.851 207.364 298.16H200.356C200.409 299.024 200.702 299.701 201.236 300.192C201.78 300.672 202.436 300.912 203.204 300.912C203.833 300.912 204.356 300.768 204.772 300.48C205.198 300.181 205.497 299.787 205.668 299.296H207.236C207.001 300.139 206.532 300.827 205.828 301.36C205.124 301.883 204.249 302.144 203.204 302.144C202.372 302.144 201.625 301.957 200.964 301.584C200.313 301.211 199.801 300.683 199.428 300C199.054 299.307 198.868 298.507 198.868 297.6C198.868 296.693 199.049 295.899 199.412 295.216C199.774 294.533 200.281 294.011 200.932 293.648C201.593 293.275 202.35 293.088 203.204 293.088C204.036 293.088 204.772 293.269 205.412 293.632C206.052 293.995 206.542 294.496 206.884 295.136C207.236 295.765 207.412 296.48 207.412 297.28ZM205.908 296.976C205.908 296.421 205.785 295.947 205.54 295.552C205.294 295.147 204.958 294.843 204.532 294.64C204.116 294.427 203.652 294.32 203.14 294.32C202.404 294.32 201.774 294.555 201.252 295.024C200.74 295.493 200.446 296.144 200.372 296.976H205.908ZM225.279 293.232L222.543 302H221.039L218.927 295.04L216.815 302H215.311L212.559 293.232H214.047L216.063 300.592L218.239 293.232H219.727L221.855 300.608L223.839 293.232H225.279ZM230.548 302.144C229.727 302.144 228.98 301.957 228.308 301.584C227.647 301.211 227.124 300.683 226.74 300C226.367 299.307 226.18 298.507 226.18 297.6C226.18 296.704 226.372 295.915 226.756 295.232C227.151 294.539 227.684 294.011 228.356 293.648C229.028 293.275 229.78 293.088 230.612 293.088C231.444 293.088 232.196 293.275 232.868 293.648C233.54 294.011 234.068 294.533 234.452 295.216C234.847 295.899 235.044 296.693 235.044 297.6C235.044 298.507 234.842 299.307 234.436 300C234.042 300.683 233.503 301.211 232.82 301.584C232.138 301.957 231.38 302.144 230.548 302.144ZM230.548 300.864C231.071 300.864 231.562 300.741 232.02 300.496C232.479 300.251 232.847 299.883 233.124 299.392C233.412 298.901 233.556 298.304 233.556 297.6C233.556 296.896 233.418 296.299 233.14 295.808C232.863 295.317 232.5 294.955 232.052 294.72C231.604 294.475 231.119 294.352 230.596 294.352C230.063 294.352 229.572 294.475 229.124 294.72C228.687 294.955 228.335 295.317 228.068 295.808C227.802 296.299 227.668 296.896 227.668 297.6C227.668 298.315 227.796 298.917 228.052 299.408C228.319 299.899 228.671 300.267 229.108 300.512C229.546 300.747 230.026 300.864 230.548 300.864ZM238.415 294.656C238.671 294.155 239.033 293.765 239.503 293.488C239.983 293.211 240.564 293.072 241.247 293.072V294.576H240.863C239.231 294.576 238.415 295.461 238.415 297.232V302H236.959V293.232H238.415V294.656ZM244.383 290.16V302H242.927V290.16H244.383ZM246.321 297.584C246.321 296.688 246.502 295.904 246.865 295.232C247.227 294.549 247.723 294.021 248.353 293.648C248.993 293.275 249.707 293.088 250.497 293.088C251.179 293.088 251.814 293.248 252.401 293.568C252.987 293.877 253.435 294.288 253.745 294.8V290.16H255.217V302H253.745V300.352C253.457 300.875 253.03 301.307 252.465 301.648C251.899 301.979 251.238 302.144 250.481 302.144C249.702 302.144 248.993 301.952 248.353 301.568C247.723 301.184 247.227 300.645 246.865 299.952C246.502 299.259 246.321 298.469 246.321 297.584ZM253.745 297.6C253.745 296.939 253.611 296.363 253.345 295.872C253.078 295.381 252.715 295.008 252.257 294.752C251.809 294.485 251.313 294.352 250.769 294.352C250.225 294.352 249.729 294.48 249.281 294.736C248.833 294.992 248.475 295.365 248.209 295.856C247.942 296.347 247.809 296.923 247.809 297.584C247.809 298.256 247.942 298.843 248.209 299.344C248.475 299.835 248.833 300.213 249.281 300.48C249.729 300.736 250.225 300.864 250.769 300.864C251.313 300.864 251.809 300.736 252.257 300.48C252.715 300.213 253.078 299.835 253.345 299.344C253.611 298.843 253.745 298.261 253.745 297.6Z" fill="white"/>
<defs>
<filter id="filter0_f_501_3" x="-50.8759" y="5.24487" width="477.939" height="371.08" filterUnits="userSpaceOnUse" color-interpolation-filters="sRGB">
<feFlood flood-opacity="0" result="BackgroundImageFix"/>
<feBlend mode="normal" in="SourceGraphic" in2="BackgroundImageFix" result="shape"/>
<feGaussianBlur stdDeviation="30" result="effect1_foregroundBlur_501_3"/>
</filter>
<filter id="filter1_f_501_3" x="-10.4375" y="0.836182" width="396.875" height="397.18" filterUnits="userSpaceOnUse" color-interpolation-filters="sRGB">
<feFlood flood-opacity="0" result="BackgroundImageFix"/>
<feBlend mode="normal" in="SourceGraphic" in2="BackgroundImageFix" result="shape"/>
<feGaussianBlur stdDeviation="50" result="effect1_foregroundBlur_501_3"/>
</filter>
<linearGradient id="paint0_linear_501_3" x1="225" y1="16.4075" x2="225" y2="228" gradientUnits="userSpaceOnUse">
<stop stop-color="#0F2C3A"/>
<stop offset="1" stop-color="#0F2C3A" stop-opacity="0"/>
</linearGradient>
</defs>
</svg>
