<svg width="1440" height="926" viewBox="0 0 1440 926" fill="none" xmlns="http://www.w3.org/2000/svg">
<g filter="url(#filter0_f_501_2)">
<path d="M823.309 507.169C907.245 390.127 1052.11 297.951 1291.37 302.521C1297.17 399.703 1275.65 543.889 1192.26 661.498C1108.79 779.227 963.274 870.417 720.842 861.092C716.358 765.897 739.462 624.086 823.309 507.169Z" fill="#ED6573" fill-opacity="0.1" stroke="#EF7D7E" stroke-width="1.5"/>
<path d="M617.309 507.169C533.372 390.127 388.508 297.951 149.252 302.521C143.445 399.703 164.969 543.889 248.354 661.498C331.824 779.227 477.343 870.417 719.775 861.092C724.259 765.897 701.155 624.086 617.309 507.169Z" fill="#ED6573" fill-opacity="0.1" stroke="#EF7D7E" stroke-width="1.5"/>
<path d="M897.818 536.979C921.228 394.866 883.971 227.252 711.56 61.3049C638.737 125.917 552.001 243.091 527.801 385.215C503.576 527.485 541.993 694.863 720.011 859.695C790.495 795.552 874.434 678.94 897.818 536.979Z" fill="#ED6573" fill-opacity="0.1" stroke="#EF7D7E" stroke-width="1.5"/>
</g>
<path d="M818.588 506.062C898.646 394.428 1036.82 306.506 1265.02 310.857C1270.55 403.555 1250.02 541.071 1170.49 653.241C1090.87 765.53 952.08 852.511 720.848 843.625C716.577 752.822 738.619 617.572 818.588 506.062Z" fill="#0F2C3A" stroke="#EF7D7E" stroke-width="1.5"/>
<path d="M622.029 506.062C541.971 394.428 403.801 306.506 175.598 310.857C170.066 403.555 190.601 541.071 270.13 653.241C349.743 765.53 488.537 852.511 719.769 843.625C724.04 752.822 701.998 617.572 622.029 506.062Z" fill="#0F2C3A" stroke="#EF7D7E" stroke-width="1.5"/>
<path d="M889.595 534.473C911.923 398.925 876.392 239.054 711.952 80.7673C642.493 142.403 559.775 254.162 536.694 389.713C513.588 525.409 550.226 685.055 720.015 842.279C787.243 781.09 867.293 669.868 889.595 534.473Z" fill="#0F2C3A" stroke="#EF7D7E" stroke-width="1.5"/>
<g filter="url(#filter1_f_501_2)">
<circle cx="720" cy="489" r="315" fill="#0F2C3A" fill-opacity="0.3"/>
</g>
<rect width="1440" height="617" transform="matrix(1 0 0 -1 0 926)" fill="url(#paint0_linear_501_2)"/>
<path d="M565.8 317.8V428H543V415C539.4 419.533 534.667 423.133 528.8 425.8C523.067 428.333 516.933 429.6 510.4 429.6C501.733 429.6 493.933 427.8 487 424.2C480.2 420.6 474.8 415.267 470.8 408.2C466.933 401.133 465 392.6 465 382.6V317.8H487.6V379.2C487.6 389.067 490.067 396.667 495 402C499.933 407.2 506.667 409.8 515.2 409.8C523.733 409.8 530.467 407.2 535.4 402C540.467 396.667 543 389.067 543 379.2V317.8H565.8ZM639.483 373L690.283 428H659.483L618.683 380.6V428H595.883V280H618.683V366L658.683 317.8H690.283L639.483 373ZM718.225 303.2C714.092 303.2 710.625 301.8 707.825 299C705.025 296.2 703.625 292.733 703.625 288.6C703.625 284.467 705.025 281 707.825 278.2C710.625 275.4 714.092 274 718.225 274C722.225 274 725.625 275.4 728.425 278.2C731.225 281 732.625 284.467 732.625 288.6C732.625 292.733 731.225 296.2 728.425 299C725.625 301.8 722.225 303.2 718.225 303.2ZM729.425 317.8V428H706.625V317.8H729.425ZM858.559 317.8L790.959 479.8H767.359L789.759 426.2L746.359 317.8H771.759L802.759 401.8L834.959 317.8H858.559ZM923.566 429.8C913.166 429.8 903.766 427.467 895.366 422.8C886.966 418 880.366 411.333 875.566 402.8C870.766 394.133 868.366 384.133 868.366 372.8C868.366 361.6 870.832 351.667 875.766 343C880.699 334.333 887.432 327.667 895.966 323C904.499 318.333 914.032 316 924.566 316C935.099 316 944.632 318.333 953.166 323C961.699 327.667 968.432 334.333 973.366 343C978.299 351.667 980.766 361.6 980.766 372.8C980.766 384 978.232 393.933 973.166 402.6C968.099 411.267 961.166 418 952.366 422.8C943.699 427.467 934.099 429.8 923.566 429.8ZM923.566 410C929.432 410 934.899 408.6 939.966 405.8C945.166 403 949.366 398.8 952.566 393.2C955.766 387.6 957.366 380.8 957.366 372.8C957.366 364.8 955.832 358.067 952.766 352.6C949.699 347 945.632 342.8 940.566 340C935.499 337.2 930.032 335.8 924.166 335.8C918.299 335.8 912.832 337.2 907.766 340C902.832 342.8 898.899 347 895.966 352.6C893.032 358.067 891.566 364.8 891.566 372.8C891.566 384.667 894.566 393.867 900.566 400.4C906.699 406.8 914.366 410 923.566 410Z" fill="white"/>
<path d="M419.505 509.4C419.505 516.467 417.838 523.133 414.505 529.4C411.171 535.667 405.838 540.8 398.505 544.8C391.171 548.667 381.771 550.6 370.305 550.6H345.105V607H322.305V468H370.305C380.971 468 389.971 469.867 397.305 473.6C404.771 477.2 410.305 482.133 413.905 488.4C417.638 494.667 419.505 501.667 419.505 509.4ZM370.305 532C378.971 532 385.438 530.067 389.705 526.2C393.971 522.2 396.105 516.6 396.105 509.4C396.105 494.2 387.505 486.6 370.305 486.6H345.105V532H370.305ZM464.05 512.8C467.383 507.2 471.783 502.867 477.25 499.8C482.85 496.6 489.45 495 497.05 495V518.6H491.25C482.317 518.6 475.517 520.867 470.85 525.4C466.317 529.933 464.05 537.8 464.05 549V607H441.25V496.8H464.05V512.8ZM565.808 608.8C555.408 608.8 546.008 606.467 537.608 601.8C529.208 597 522.608 590.333 517.808 581.8C513.008 573.133 510.608 563.133 510.608 551.8C510.608 540.6 513.074 530.667 518.008 522C522.941 513.333 529.674 506.667 538.208 502C546.741 497.333 556.274 495 566.808 495C577.341 495 586.874 497.333 595.408 502C603.941 506.667 610.674 513.333 615.608 522C620.541 530.667 623.008 540.6 623.008 551.8C623.008 563 620.474 572.933 615.408 581.6C610.341 590.267 603.408 597 594.608 601.8C585.941 606.467 576.341 608.8 565.808 608.8ZM565.808 589C571.674 589 577.141 587.6 582.208 584.8C587.408 582 591.608 577.8 594.808 572.2C598.008 566.6 599.608 559.8 599.608 551.8C599.608 543.8 598.074 537.067 595.008 531.6C591.941 526 587.874 521.8 582.808 519C577.741 516.2 572.274 514.8 566.408 514.8C560.541 514.8 555.074 516.2 550.008 519C545.074 521.8 541.141 526 538.208 531.6C535.274 537.067 533.808 543.8 533.808 551.8C533.808 563.667 536.808 572.867 542.808 579.4C548.941 585.8 556.608 589 565.808 589ZM672.147 515.4V576.4C672.147 580.533 673.08 583.533 674.947 585.4C676.947 587.133 680.28 588 684.947 588H698.947V607H680.947C670.68 607 662.814 604.6 657.347 599.8C651.88 595 649.147 587.2 649.147 576.4V515.4H636.147V496.8H649.147V469.4H672.147V496.8H698.947V515.4H672.147ZM767.761 608.8C757.361 608.8 747.961 606.467 739.561 601.8C731.161 597 724.561 590.333 719.761 581.8C714.961 573.133 712.561 563.133 712.561 551.8C712.561 540.6 715.028 530.667 719.961 522C724.894 513.333 731.628 506.667 740.161 502C748.694 497.333 758.228 495 768.761 495C779.294 495 788.828 497.333 797.361 502C805.894 506.667 812.628 513.333 817.561 522C822.494 530.667 824.961 540.6 824.961 551.8C824.961 563 822.428 572.933 817.361 581.6C812.294 590.267 805.361 597 796.561 601.8C787.894 606.467 778.294 608.8 767.761 608.8ZM767.761 589C773.628 589 779.094 587.6 784.161 584.8C789.361 582 793.561 577.8 796.761 572.2C799.961 566.6 801.561 559.8 801.561 551.8C801.561 543.8 800.028 537.067 796.961 531.6C793.894 526 789.828 521.8 784.761 519C779.694 516.2 774.228 514.8 768.361 514.8C762.494 514.8 757.028 516.2 751.961 519C747.028 521.8 743.094 526 740.161 531.6C737.228 537.067 735.761 543.8 735.761 551.8C735.761 563.667 738.761 572.867 744.761 579.4C750.894 585.8 758.561 589 767.761 589ZM839.9 551.8C839.9 540.467 842.167 530.533 846.7 522C851.367 513.333 857.767 506.667 865.9 502C874.033 497.333 883.367 495 893.9 495C907.233 495 918.233 498.2 926.9 504.6C935.7 510.867 941.633 519.867 944.7 531.6H920.1C918.1 526.133 914.9 521.867 910.5 518.8C906.1 515.733 900.567 514.2 893.9 514.2C884.567 514.2 877.1 517.533 871.5 524.2C866.033 530.733 863.3 539.933 863.3 551.8C863.3 563.667 866.033 572.933 871.5 579.6C877.1 586.267 884.567 589.6 893.9 589.6C907.1 589.6 915.833 583.8 920.1 572.2H944.7C941.5 583.4 935.5 592.333 926.7 599C917.9 605.533 906.967 608.8 893.9 608.8C883.367 608.8 874.033 606.467 865.9 601.8C857.767 597 851.367 590.333 846.7 581.8C842.167 573.133 839.9 563.133 839.9 551.8ZM1015.22 608.8C1004.82 608.8 995.422 606.467 987.022 601.8C978.622 597 972.022 590.333 967.222 581.8C962.422 573.133 960.022 563.133 960.022 551.8C960.022 540.6 962.489 530.667 967.422 522C972.355 513.333 979.089 506.667 987.622 502C996.155 497.333 1005.69 495 1016.22 495C1026.76 495 1036.29 497.333 1044.82 502C1053.36 506.667 1060.09 513.333 1065.02 522C1069.96 530.667 1072.42 540.6 1072.42 551.8C1072.42 563 1069.89 572.933 1064.82 581.6C1059.76 590.267 1052.82 597 1044.02 601.8C1035.36 606.467 1025.76 608.8 1015.22 608.8ZM1015.22 589C1021.09 589 1026.56 587.6 1031.62 584.8C1036.82 582 1041.02 577.8 1044.22 572.2C1047.42 566.6 1049.02 559.8 1049.02 551.8C1049.02 543.8 1047.49 537.067 1044.42 531.6C1041.36 526 1037.29 521.8 1032.22 519C1027.16 516.2 1021.69 514.8 1015.82 514.8C1009.96 514.8 1004.49 516.2 999.422 519C994.489 521.8 990.555 526 987.622 531.6C984.689 537.067 983.222 543.8 983.222 551.8C983.222 563.667 986.222 572.867 992.222 579.4C998.355 585.8 1006.02 589 1015.22 589ZM1117.76 459V607H1094.96V459H1117.76Z" fill="white"/>
<path d="M480.052 662.666C481.724 662.666 483.169 662.981 484.386 663.612C485.618 664.228 486.557 665.115 487.202 666.274C487.862 667.433 488.192 668.797 488.192 670.366C488.192 671.935 487.862 673.299 487.202 674.458C486.557 675.602 485.618 676.482 484.386 677.098C483.169 677.699 481.724 678 480.052 678H475.278V662.666H480.052ZM480.052 676.35C482.032 676.35 483.543 675.829 484.584 674.788C485.625 673.732 486.146 672.258 486.146 670.366C486.146 668.459 485.618 666.971 484.562 665.9C483.521 664.829 482.017 664.294 480.052 664.294H477.28V676.35H480.052ZM491.867 663.986C491.485 663.986 491.163 663.854 490.899 663.59C490.635 663.326 490.503 663.003 490.503 662.622C490.503 662.241 490.635 661.918 490.899 661.654C491.163 661.39 491.485 661.258 491.867 661.258C492.233 661.258 492.541 661.39 492.791 661.654C493.055 661.918 493.187 662.241 493.187 662.622C493.187 663.003 493.055 663.326 492.791 663.59C492.541 663.854 492.233 663.986 491.867 663.986ZM492.835 665.944V678H490.833V665.944H492.835ZM500.515 678.198C499.591 678.198 498.762 678.044 498.029 677.736C497.295 677.413 496.716 676.973 496.291 676.416C495.865 675.844 495.631 675.191 495.587 674.458H497.655C497.713 675.059 497.992 675.551 498.491 675.932C499.004 676.313 499.671 676.504 500.493 676.504C501.255 676.504 501.857 676.335 502.297 675.998C502.737 675.661 502.957 675.235 502.957 674.722C502.957 674.194 502.722 673.805 502.253 673.556C501.783 673.292 501.057 673.035 500.075 672.786C499.18 672.551 498.447 672.317 497.875 672.082C497.317 671.833 496.833 671.473 496.423 671.004C496.027 670.52 495.829 669.889 495.829 669.112C495.829 668.496 496.012 667.931 496.379 667.418C496.745 666.905 497.266 666.501 497.941 666.208C498.615 665.9 499.385 665.746 500.251 665.746C501.585 665.746 502.663 666.083 503.485 666.758C504.306 667.433 504.746 668.357 504.805 669.53H502.803C502.759 668.899 502.502 668.393 502.033 668.012C501.578 667.631 500.962 667.44 500.185 667.44C499.466 667.44 498.894 667.594 498.469 667.902C498.043 668.21 497.831 668.613 497.831 669.112C497.831 669.508 497.955 669.838 498.205 670.102C498.469 670.351 498.791 670.557 499.173 670.718C499.569 670.865 500.111 671.033 500.801 671.224C501.666 671.459 502.37 671.693 502.913 671.928C503.455 672.148 503.917 672.485 504.299 672.94C504.695 673.395 504.9 673.989 504.915 674.722C504.915 675.382 504.731 675.976 504.365 676.504C503.998 677.032 503.477 677.45 502.803 677.758C502.143 678.051 501.38 678.198 500.515 678.198ZM509.743 667.902C510.095 667.213 510.594 666.677 511.239 666.296C511.899 665.915 512.698 665.724 513.637 665.724V667.792H513.109C510.865 667.792 509.743 669.009 509.743 671.444V678H507.741V665.944H509.743V667.902ZM526.64 665.944V678H524.638V676.218C524.257 676.834 523.721 677.318 523.032 677.67C522.357 678.007 521.609 678.176 520.788 678.176C519.849 678.176 519.006 677.985 518.258 677.604C517.51 677.208 516.916 676.621 516.476 675.844C516.051 675.067 515.838 674.121 515.838 673.006V665.944H517.818V672.742C517.818 673.93 518.119 674.847 518.72 675.492C519.321 676.123 520.143 676.438 521.184 676.438C522.255 676.438 523.098 676.108 523.714 675.448C524.33 674.788 524.638 673.827 524.638 672.566V665.944H526.64ZM532.022 668.166C532.418 667.477 533.005 666.905 533.782 666.45C534.574 665.981 535.491 665.746 536.532 665.746C537.603 665.746 538.571 666.003 539.436 666.516C540.316 667.029 541.006 667.755 541.504 668.694C542.003 669.618 542.252 670.696 542.252 671.928C542.252 673.145 542.003 674.231 541.504 675.184C541.006 676.137 540.316 676.878 539.436 677.406C538.571 677.934 537.603 678.198 536.532 678.198C535.506 678.198 534.596 677.971 533.804 677.516C533.027 677.047 532.433 676.467 532.022 675.778V683.72H530.02V665.944H532.022V668.166ZM540.206 671.928C540.206 671.019 540.023 670.227 539.656 669.552C539.29 668.877 538.791 668.364 538.16 668.012C537.544 667.66 536.862 667.484 536.114 667.484C535.381 667.484 534.699 667.667 534.068 668.034C533.452 668.386 532.954 668.907 532.572 669.596C532.206 670.271 532.022 671.055 532.022 671.95C532.022 672.859 532.206 673.659 532.572 674.348C532.954 675.023 533.452 675.543 534.068 675.91C534.699 676.262 535.381 676.438 536.114 676.438C536.862 676.438 537.544 676.262 538.16 675.91C538.791 675.543 539.29 675.023 539.656 674.348C540.023 673.659 540.206 672.852 540.206 671.928ZM547.329 667.594V674.7C547.329 675.287 547.454 675.705 547.703 675.954C547.953 676.189 548.385 676.306 549.001 676.306H550.475V678H548.671C547.557 678 546.721 677.743 546.163 677.23C545.606 676.717 545.327 675.873 545.327 674.7V667.594H543.765V665.944H545.327V662.908H547.329V665.944H550.475V667.594H547.329ZM553.935 663.986C553.554 663.986 553.231 663.854 552.967 663.59C552.703 663.326 552.571 663.003 552.571 662.622C552.571 662.241 552.703 661.918 552.967 661.654C553.231 661.39 553.554 661.258 553.935 661.258C554.302 661.258 554.61 661.39 554.859 661.654C555.123 661.918 555.255 662.241 555.255 662.622C555.255 663.003 555.123 663.326 554.859 663.59C554.61 663.854 554.302 663.986 553.935 663.986ZM554.903 665.944V678H552.901V665.944H554.903ZM564.189 665.724C565.656 665.724 566.844 666.171 567.753 667.066C568.662 667.946 569.117 669.222 569.117 670.894V678H567.137V671.18C567.137 669.977 566.836 669.061 566.235 668.43C565.634 667.785 564.812 667.462 563.771 667.462C562.715 667.462 561.872 667.792 561.241 668.452C560.625 669.112 560.317 670.073 560.317 671.334V678H558.315V665.944H560.317V667.66C560.713 667.044 561.248 666.567 561.923 666.23C562.612 665.893 563.368 665.724 564.189 665.724ZM577.359 665.746C578.401 665.746 579.31 665.973 580.087 666.428C580.879 666.883 581.466 667.455 581.847 668.144V665.944H583.871V678.264C583.871 679.364 583.637 680.339 583.167 681.19C582.698 682.055 582.023 682.73 581.143 683.214C580.278 683.698 579.266 683.94 578.107 683.94C576.523 683.94 575.203 683.566 574.147 682.818C573.091 682.07 572.468 681.051 572.277 679.76H574.257C574.477 680.493 574.932 681.08 575.621 681.52C576.311 681.975 577.139 682.202 578.107 682.202C579.207 682.202 580.102 681.857 580.791 681.168C581.495 680.479 581.847 679.511 581.847 678.264V675.734C581.451 676.438 580.865 677.025 580.087 677.494C579.31 677.963 578.401 678.198 577.359 678.198C576.289 678.198 575.313 677.934 574.433 677.406C573.568 676.878 572.886 676.137 572.387 675.184C571.889 674.231 571.639 673.145 571.639 671.928C571.639 670.696 571.889 669.618 572.387 668.694C572.886 667.755 573.568 667.029 574.433 666.516C575.313 666.003 576.289 665.746 577.359 665.746ZM581.847 671.95C581.847 671.041 581.664 670.249 581.297 669.574C580.931 668.899 580.432 668.386 579.801 668.034C579.185 667.667 578.503 667.484 577.755 667.484C577.007 667.484 576.325 667.66 575.709 668.012C575.093 668.364 574.602 668.877 574.235 669.552C573.869 670.227 573.685 671.019 573.685 671.928C573.685 672.852 573.869 673.659 574.235 674.348C574.602 675.023 575.093 675.543 575.709 675.91C576.325 676.262 577.007 676.438 577.755 676.438C578.503 676.438 579.185 676.262 579.801 675.91C580.432 675.543 580.931 675.023 581.297 674.348C581.664 673.659 581.847 672.859 581.847 671.95ZM595.562 667.594V674.7C595.562 675.287 595.686 675.705 595.936 675.954C596.185 676.189 596.618 676.306 597.234 676.306H598.708V678H596.904C595.789 678 594.953 677.743 594.396 677.23C593.838 676.717 593.56 675.873 593.56 674.7V667.594H591.998V665.944H593.56V662.908H595.562V665.944H598.708V667.594H595.562ZM607.117 665.724C608.027 665.724 608.848 665.922 609.581 666.318C610.315 666.699 610.887 667.279 611.297 668.056C611.723 668.833 611.935 669.779 611.935 670.894V678H609.955V671.18C609.955 669.977 609.655 669.061 609.053 668.43C608.452 667.785 607.631 667.462 606.589 667.462C605.533 667.462 604.69 667.792 604.059 668.452C603.443 669.112 603.135 670.073 603.135 671.334V678H601.133V661.72H603.135V667.66C603.531 667.044 604.074 666.567 604.763 666.23C605.467 665.893 606.252 665.724 607.117 665.724ZM626.206 671.51C626.206 671.891 626.184 672.295 626.14 672.72H616.504C616.577 673.908 616.98 674.839 617.714 675.514C618.462 676.174 619.364 676.504 620.42 676.504C621.285 676.504 622.004 676.306 622.576 675.91C623.162 675.499 623.573 674.957 623.808 674.282H625.964C625.641 675.441 624.996 676.387 624.028 677.12C623.06 677.839 621.857 678.198 620.42 678.198C619.276 678.198 618.249 677.941 617.34 677.428C616.445 676.915 615.741 676.189 615.228 675.25C614.714 674.297 614.458 673.197 614.458 671.95C614.458 670.703 614.707 669.611 615.206 668.672C615.704 667.733 616.401 667.015 617.296 666.516C618.205 666.003 619.246 665.746 620.42 665.746C621.564 665.746 622.576 665.995 623.456 666.494C624.336 666.993 625.01 667.682 625.48 668.562C625.964 669.427 626.206 670.41 626.206 671.51ZM624.138 671.092C624.138 670.329 623.969 669.677 623.632 669.134C623.294 668.577 622.832 668.159 622.246 667.88C621.674 667.587 621.036 667.44 620.332 667.44C619.32 667.44 618.454 667.763 617.736 668.408C617.032 669.053 616.628 669.948 616.526 671.092H624.138ZM650.774 665.944L647.012 678H644.944L642.04 668.43L639.136 678H637.068L633.284 665.944H635.33L638.102 676.064L641.094 665.944H643.14L646.066 676.086L648.794 665.944H650.774ZM652.012 671.928C652.012 670.696 652.262 669.618 652.76 668.694C653.259 667.755 653.941 667.029 654.806 666.516C655.686 666.003 656.662 665.746 657.732 665.746C658.788 665.746 659.705 665.973 660.482 666.428C661.26 666.883 661.839 667.455 662.22 668.144V665.944H664.244V678H662.22V675.756C661.824 676.46 661.23 677.047 660.438 677.516C659.661 677.971 658.752 678.198 657.71 678.198C656.64 678.198 655.672 677.934 654.806 677.406C653.941 676.878 653.259 676.137 652.76 675.184C652.262 674.231 652.012 673.145 652.012 671.928ZM662.22 671.95C662.22 671.041 662.037 670.249 661.67 669.574C661.304 668.899 660.805 668.386 660.174 668.034C659.558 667.667 658.876 667.484 658.128 667.484C657.38 667.484 656.698 667.66 656.082 668.012C655.466 668.364 654.975 668.877 654.608 669.552C654.242 670.227 654.058 671.019 654.058 671.928C654.058 672.852 654.242 673.659 654.608 674.348C654.975 675.023 655.466 675.543 656.082 675.91C656.698 676.262 657.38 676.438 658.128 676.438C658.876 676.438 659.558 676.262 660.174 675.91C660.805 675.543 661.304 675.023 661.67 674.348C662.037 673.659 662.22 672.859 662.22 671.95ZM678.012 665.944L670.752 683.676H668.684L671.06 677.868L666.198 665.944H668.42L672.204 675.712L675.944 665.944H678.012ZM696.273 665.944L689.013 683.676H686.945L689.321 677.868L684.459 665.944H686.681L690.465 675.712L694.205 665.944H696.273ZM703.544 678.198C702.414 678.198 701.388 677.941 700.464 677.428C699.554 676.915 698.836 676.189 698.308 675.25C697.794 674.297 697.538 673.197 697.538 671.95C697.538 670.718 697.802 669.633 698.33 668.694C698.872 667.741 699.606 667.015 700.53 666.516C701.454 666.003 702.488 665.746 703.632 665.746C704.776 665.746 705.81 666.003 706.734 666.516C707.658 667.015 708.384 667.733 708.912 668.672C709.454 669.611 709.726 670.703 709.726 671.95C709.726 673.197 709.447 674.297 708.89 675.25C708.347 676.189 707.606 676.915 706.668 677.428C705.729 677.941 704.688 678.198 703.544 678.198ZM703.544 676.438C704.262 676.438 704.937 676.269 705.568 675.932C706.198 675.595 706.704 675.089 707.086 674.414C707.482 673.739 707.68 672.918 707.68 671.95C707.68 670.982 707.489 670.161 707.108 669.486C706.726 668.811 706.228 668.313 705.612 667.99C704.996 667.653 704.328 667.484 703.61 667.484C702.876 667.484 702.202 667.653 701.586 667.99C700.984 668.313 700.5 668.811 700.134 669.486C699.767 670.161 699.584 670.982 699.584 671.95C699.584 672.933 699.76 673.761 700.112 674.436C700.478 675.111 700.962 675.617 701.564 675.954C702.165 676.277 702.825 676.438 703.544 676.438ZM723.05 665.944V678H721.048V676.218C720.667 676.834 720.131 677.318 719.442 677.67C718.767 678.007 718.019 678.176 717.198 678.176C716.259 678.176 715.416 677.985 714.668 677.604C713.92 677.208 713.326 676.621 712.886 675.844C712.461 675.067 712.248 674.121 712.248 673.006V665.944H714.228V672.742C714.228 673.93 714.529 674.847 715.13 675.492C715.731 676.123 716.553 676.438 717.594 676.438C718.665 676.438 719.508 676.108 720.124 675.448C720.74 674.788 721.048 673.827 721.048 672.566V665.944H723.05ZM728.432 667.902C728.784 667.213 729.283 666.677 729.928 666.296C730.588 665.915 731.388 665.724 732.326 665.724V667.792H731.798C729.554 667.792 728.432 669.009 728.432 671.444V678H726.43V665.944H728.432V667.902ZM739.755 671.928C739.755 670.696 740.004 669.618 740.503 668.694C741.001 667.755 741.683 667.029 742.549 666.516C743.429 666.003 744.404 665.746 745.475 665.746C746.531 665.746 747.447 665.973 748.225 666.428C749.002 666.883 749.581 667.455 749.963 668.144V665.944H751.987V678H749.963V675.756C749.567 676.46 748.973 677.047 748.181 677.516C747.403 677.971 746.494 678.198 745.453 678.198C744.382 678.198 743.414 677.934 742.549 677.406C741.683 676.878 741.001 676.137 740.503 675.184C740.004 674.231 739.755 673.145 739.755 671.928ZM749.963 671.95C749.963 671.041 749.779 670.249 749.413 669.574C749.046 668.899 748.547 668.386 747.917 668.034C747.301 667.667 746.619 667.484 745.871 667.484C745.123 667.484 744.441 667.66 743.825 668.012C743.209 668.364 742.717 668.877 742.351 669.552C741.984 670.227 741.801 671.019 741.801 671.928C741.801 672.852 741.984 673.659 742.351 674.348C742.717 675.023 743.209 675.543 743.825 675.91C744.441 676.262 745.123 676.438 745.871 676.438C746.619 676.438 747.301 676.262 747.917 675.91C748.547 675.543 749.046 675.023 749.413 674.348C749.779 673.659 749.963 672.859 749.963 671.95ZM759.638 678.198C758.714 678.198 757.885 678.044 757.152 677.736C756.418 677.413 755.839 676.973 755.414 676.416C754.988 675.844 754.754 675.191 754.71 674.458H756.778C756.836 675.059 757.115 675.551 757.614 675.932C758.127 676.313 758.794 676.504 759.616 676.504C760.378 676.504 760.98 676.335 761.42 675.998C761.86 675.661 762.08 675.235 762.08 674.722C762.08 674.194 761.845 673.805 761.376 673.556C760.906 673.292 760.18 673.035 759.198 672.786C758.303 672.551 757.57 672.317 756.998 672.082C756.44 671.833 755.956 671.473 755.546 671.004C755.15 670.52 754.952 669.889 754.952 669.112C754.952 668.496 755.135 667.931 755.502 667.418C755.868 666.905 756.389 666.501 757.064 666.208C757.738 665.9 758.508 665.746 759.374 665.746C760.708 665.746 761.786 666.083 762.608 666.758C763.429 667.433 763.869 668.357 763.928 669.53H761.926C761.882 668.899 761.625 668.393 761.156 668.012C760.701 667.631 760.085 667.44 759.308 667.44C758.589 667.44 758.017 667.594 757.592 667.902C757.166 668.21 756.954 668.613 756.954 669.112C756.954 669.508 757.078 669.838 757.328 670.102C757.592 670.351 757.914 670.557 758.296 670.718C758.692 670.865 759.234 671.033 759.924 671.224C760.789 671.459 761.493 671.693 762.036 671.928C762.578 672.148 763.04 672.485 763.422 672.94C763.818 673.395 764.023 673.989 764.038 674.722C764.038 675.382 763.854 675.976 763.488 676.504C763.121 677.032 762.6 677.45 761.926 677.758C761.266 678.051 760.503 678.198 759.638 678.198ZM771.132 678.198C770.208 678.198 769.379 678.044 768.646 677.736C767.913 677.413 767.333 676.973 766.908 676.416C766.483 675.844 766.248 675.191 766.204 674.458H768.272C768.331 675.059 768.609 675.551 769.108 675.932C769.621 676.313 770.289 676.504 771.11 676.504C771.873 676.504 772.474 676.335 772.914 675.998C773.354 675.661 773.574 675.235 773.574 674.722C773.574 674.194 773.339 673.805 772.87 673.556C772.401 673.292 771.675 673.035 770.692 672.786C769.797 672.551 769.064 672.317 768.492 672.082C767.935 671.833 767.451 671.473 767.04 671.004C766.644 670.52 766.446 669.889 766.446 669.112C766.446 668.496 766.629 667.931 766.996 667.418C767.363 666.905 767.883 666.501 768.558 666.208C769.233 665.9 770.003 665.746 770.868 665.746C772.203 665.746 773.281 666.083 774.102 666.758C774.923 667.433 775.363 668.357 775.422 669.53H773.42C773.376 668.899 773.119 668.393 772.65 668.012C772.195 667.631 771.579 667.44 770.802 667.44C770.083 667.44 769.511 667.594 769.086 667.902C768.661 668.21 768.448 668.613 768.448 669.112C768.448 669.508 768.573 669.838 768.822 670.102C769.086 670.351 769.409 670.557 769.79 670.718C770.186 670.865 770.729 671.033 771.418 671.224C772.283 671.459 772.987 671.693 773.53 671.928C774.073 672.148 774.535 672.485 774.916 672.94C775.312 673.395 775.517 673.989 775.532 674.722C775.532 675.382 775.349 675.976 774.982 676.504C774.615 677.032 774.095 677.45 773.42 677.758C772.76 678.051 771.997 678.198 771.132 678.198ZM789.358 671.51C789.358 671.891 789.336 672.295 789.292 672.72H779.656C779.729 673.908 780.133 674.839 780.866 675.514C781.614 676.174 782.516 676.504 783.572 676.504C784.437 676.504 785.156 676.306 785.728 675.91C786.315 675.499 786.725 674.957 786.96 674.282H789.116C788.793 675.441 788.148 676.387 787.18 677.12C786.212 677.839 785.009 678.198 783.572 678.198C782.428 678.198 781.401 677.941 780.492 677.428C779.597 676.915 778.893 676.189 778.38 675.25C777.867 674.297 777.61 673.197 777.61 671.95C777.61 670.703 777.859 669.611 778.358 668.672C778.857 667.733 779.553 667.015 780.448 666.516C781.357 666.003 782.399 665.746 783.572 665.746C784.716 665.746 785.728 665.995 786.608 666.494C787.488 666.993 788.163 667.682 788.632 668.562C789.116 669.427 789.358 670.41 789.358 671.51ZM787.29 671.092C787.29 670.329 787.121 669.677 786.784 669.134C786.447 668.577 785.985 668.159 785.398 667.88C784.826 667.587 784.188 667.44 783.484 667.44C782.472 667.44 781.607 667.763 780.888 668.408C780.184 669.053 779.781 669.948 779.678 671.092H787.29ZM794.443 667.594V674.7C794.443 675.287 794.567 675.705 794.817 675.954C795.066 676.189 795.499 676.306 796.115 676.306H797.589V678H795.785C794.67 678 793.834 677.743 793.277 677.23C792.719 676.717 792.441 675.873 792.441 674.7V667.594H790.879V665.944H792.441V662.908H794.443V665.944H797.589V667.594H794.443ZM804.282 678.198C803.358 678.198 802.53 678.044 801.796 677.736C801.063 677.413 800.484 676.973 800.058 676.416C799.633 675.844 799.398 675.191 799.354 674.458H801.422C801.481 675.059 801.76 675.551 802.258 675.932C802.772 676.313 803.439 676.504 804.26 676.504C805.023 676.504 805.624 676.335 806.064 675.998C806.504 675.661 806.724 675.235 806.724 674.722C806.724 674.194 806.49 673.805 806.02 673.556C805.551 673.292 804.825 673.035 803.842 672.786C802.948 672.551 802.214 672.317 801.642 672.082C801.085 671.833 800.601 671.473 800.19 671.004C799.794 670.52 799.596 669.889 799.596 669.112C799.596 668.496 799.78 667.931 800.146 667.418C800.513 666.905 801.034 666.501 801.708 666.208C802.383 665.9 803.153 665.746 804.018 665.746C805.353 665.746 806.431 666.083 807.252 666.758C808.074 667.433 808.514 668.357 808.572 669.53H806.57C806.526 668.899 806.27 668.393 805.8 668.012C805.346 667.631 804.73 667.44 803.952 667.44C803.234 667.44 802.662 667.594 802.236 667.902C801.811 668.21 801.598 668.613 801.598 669.112C801.598 669.508 801.723 669.838 801.972 670.102C802.236 670.351 802.559 670.557 802.94 670.718C803.336 670.865 803.879 671.033 804.568 671.224C805.434 671.459 806.138 671.693 806.68 671.928C807.223 672.148 807.685 672.485 808.066 672.94C808.462 673.395 808.668 673.989 808.682 674.722C808.682 675.382 808.499 675.976 808.132 676.504C807.766 677.032 807.245 677.45 806.57 677.758C805.91 678.051 805.148 678.198 804.282 678.198ZM831.872 665.724C832.81 665.724 833.646 665.922 834.38 666.318C835.113 666.699 835.692 667.279 836.118 668.056C836.543 668.833 836.756 669.779 836.756 670.894V678H834.776V671.18C834.776 669.977 834.475 669.061 833.874 668.43C833.287 667.785 832.488 667.462 831.476 667.462C830.434 667.462 829.606 667.799 828.99 668.474C828.374 669.134 828.066 670.095 828.066 671.356V678H826.086V671.18C826.086 669.977 825.785 669.061 825.184 668.43C824.597 667.785 823.798 667.462 822.786 667.462C821.744 667.462 820.916 667.799 820.3 668.474C819.684 669.134 819.376 670.095 819.376 671.356V678H817.374V665.944H819.376V667.682C819.772 667.051 820.3 666.567 820.96 666.23C821.634 665.893 822.375 665.724 823.182 665.724C824.194 665.724 825.088 665.951 825.866 666.406C826.643 666.861 827.222 667.528 827.604 668.408C827.941 667.557 828.498 666.897 829.276 666.428C830.053 665.959 830.918 665.724 831.872 665.724ZM845.298 678.198C844.168 678.198 843.142 677.941 842.218 677.428C841.308 676.915 840.59 676.189 840.062 675.25C839.548 674.297 839.292 673.197 839.292 671.95C839.292 670.718 839.556 669.633 840.084 668.694C840.626 667.741 841.36 667.015 842.284 666.516C843.208 666.003 844.242 665.746 845.386 665.746C846.53 665.746 847.564 666.003 848.488 666.516C849.412 667.015 850.138 667.733 850.666 668.672C851.208 669.611 851.48 670.703 851.48 671.95C851.48 673.197 851.201 674.297 850.644 675.25C850.101 676.189 849.36 676.915 848.422 677.428C847.483 677.941 846.442 678.198 845.298 678.198ZM845.298 676.438C846.016 676.438 846.691 676.269 847.322 675.932C847.952 675.595 848.458 675.089 848.84 674.414C849.236 673.739 849.434 672.918 849.434 671.95C849.434 670.982 849.243 670.161 848.862 669.486C848.48 668.811 847.982 668.313 847.366 667.99C846.75 667.653 846.082 667.484 845.364 667.484C844.63 667.484 843.956 667.653 843.34 667.99C842.738 668.313 842.254 668.811 841.888 669.486C841.521 670.161 841.338 670.982 841.338 671.95C841.338 672.933 841.514 673.761 841.866 674.436C842.232 675.111 842.716 675.617 843.318 675.954C843.919 676.277 844.579 676.438 845.298 676.438ZM858.6 676.152L862.34 665.944H864.474L859.744 678H857.412L852.682 665.944H854.838L858.6 676.152ZM877.444 671.51C877.444 671.891 877.422 672.295 877.378 672.72H867.742C867.815 673.908 868.219 674.839 868.952 675.514C869.7 676.174 870.602 676.504 871.658 676.504C872.523 676.504 873.242 676.306 873.814 675.91C874.401 675.499 874.811 674.957 875.046 674.282H877.202C876.879 675.441 876.234 676.387 875.266 677.12C874.298 677.839 873.095 678.198 871.658 678.198C870.514 678.198 869.487 677.941 868.578 677.428C867.683 676.915 866.979 676.189 866.466 675.25C865.953 674.297 865.696 673.197 865.696 671.95C865.696 670.703 865.945 669.611 866.444 668.672C866.943 667.733 867.639 667.015 868.534 666.516C869.443 666.003 870.485 665.746 871.658 665.746C872.802 665.746 873.814 665.995 874.694 666.494C875.574 666.993 876.249 667.682 876.718 668.562C877.202 669.427 877.444 670.41 877.444 671.51ZM875.376 671.092C875.376 670.329 875.207 669.677 874.87 669.134C874.533 668.577 874.071 668.159 873.484 667.88C872.912 667.587 872.274 667.44 871.57 667.44C870.558 667.44 869.693 667.763 868.974 668.408C868.27 669.053 867.867 669.948 867.764 671.092H875.376ZM885.204 671.928C885.204 670.696 885.453 669.618 885.952 668.694C886.45 667.755 887.132 667.029 887.998 666.516C888.878 666.003 889.853 665.746 890.924 665.746C891.98 665.746 892.896 665.973 893.674 666.428C894.451 666.883 895.03 667.455 895.412 668.144V665.944H897.436V678H895.412V675.756C895.016 676.46 894.422 677.047 893.63 677.516C892.852 677.971 891.943 678.198 890.902 678.198C889.831 678.198 888.863 677.934 887.998 677.406C887.132 676.878 886.45 676.137 885.952 675.184C885.453 674.231 885.204 673.145 885.204 671.928ZM895.412 671.95C895.412 671.041 895.228 670.249 894.862 669.574C894.495 668.899 893.996 668.386 893.366 668.034C892.75 667.667 892.068 667.484 891.32 667.484C890.572 667.484 889.89 667.66 889.274 668.012C888.658 668.364 888.166 668.877 887.8 669.552C887.433 670.227 887.25 671.019 887.25 671.928C887.25 672.852 887.433 673.659 887.8 674.348C888.166 675.023 888.658 675.543 889.274 675.91C889.89 676.262 890.572 676.438 891.32 676.438C892.068 676.438 892.75 676.262 893.366 675.91C893.996 675.543 894.495 675.023 894.862 674.348C895.228 673.659 895.412 672.859 895.412 671.95ZM902.821 667.902C903.173 667.213 903.672 666.677 904.317 666.296C904.977 665.915 905.776 665.724 906.715 665.724V667.792H906.187C903.943 667.792 902.821 669.009 902.821 671.444V678H900.819V665.944H902.821V667.902ZM914.284 678.198C913.155 678.198 912.128 677.941 911.204 677.428C910.295 676.915 909.576 676.189 909.048 675.25C908.535 674.297 908.278 673.197 908.278 671.95C908.278 670.718 908.542 669.633 909.07 668.694C909.613 667.741 910.346 667.015 911.27 666.516C912.194 666.003 913.228 665.746 914.372 665.746C915.516 665.746 916.55 666.003 917.474 666.516C918.398 667.015 919.124 667.733 919.652 668.672C920.195 669.611 920.466 670.703 920.466 671.95C920.466 673.197 920.187 674.297 919.63 675.25C919.087 676.189 918.347 676.915 917.408 677.428C916.469 677.941 915.428 678.198 914.284 678.198ZM914.284 676.438C915.003 676.438 915.677 676.269 916.308 675.932C916.939 675.595 917.445 675.089 917.826 674.414C918.222 673.739 918.42 672.918 918.42 671.95C918.42 670.982 918.229 670.161 917.848 669.486C917.467 668.811 916.968 668.313 916.352 667.99C915.736 667.653 915.069 667.484 914.35 667.484C913.617 667.484 912.942 667.653 912.326 667.99C911.725 668.313 911.241 668.811 910.874 669.486C910.507 670.161 910.324 670.982 910.324 671.95C910.324 672.933 910.5 673.761 910.852 674.436C911.219 675.111 911.703 675.617 912.304 675.954C912.905 676.277 913.565 676.438 914.284 676.438ZM933.79 665.944V678H931.788V676.218C931.407 676.834 930.872 677.318 930.182 677.67C929.508 678.007 928.76 678.176 927.938 678.176C927 678.176 926.156 677.985 925.408 677.604C924.66 677.208 924.066 676.621 923.626 675.844C923.201 675.067 922.988 674.121 922.988 673.006V665.944H924.968V672.742C924.968 673.93 925.269 674.847 925.87 675.492C926.472 676.123 927.293 676.438 928.334 676.438C929.405 676.438 930.248 676.108 930.864 675.448C931.48 674.788 931.788 673.827 931.788 672.566V665.944H933.79ZM943.045 665.724C944.511 665.724 945.699 666.171 946.609 667.066C947.518 667.946 947.973 669.222 947.973 670.894V678H945.993V671.18C945.993 669.977 945.692 669.061 945.091 668.43C944.489 667.785 943.668 667.462 942.627 667.462C941.571 667.462 940.727 667.792 940.097 668.452C939.481 669.112 939.173 670.073 939.173 671.334V678H937.171V665.944H939.173V667.66C939.569 667.044 940.104 666.567 940.779 666.23C941.468 665.893 942.223 665.724 943.045 665.724ZM950.495 671.928C950.495 670.696 950.744 669.618 951.243 668.694C951.741 667.755 952.423 667.029 953.289 666.516C954.169 666.003 955.151 665.746 956.237 665.746C957.175 665.746 958.048 665.966 958.855 666.406C959.661 666.831 960.277 667.396 960.703 668.1V661.72H962.727V678H960.703V675.734C960.307 676.453 959.72 677.047 958.943 677.516C958.165 677.971 957.256 678.198 956.215 678.198C955.144 678.198 954.169 677.934 953.289 677.406C952.423 676.878 951.741 676.137 951.243 675.184C950.744 674.231 950.495 673.145 950.495 671.928ZM960.703 671.95C960.703 671.041 960.519 670.249 960.153 669.574C959.786 668.899 959.287 668.386 958.657 668.034C958.041 667.667 957.359 667.484 956.611 667.484C955.863 667.484 955.181 667.66 954.565 668.012C953.949 668.364 953.457 668.877 953.091 669.552C952.724 670.227 952.541 671.019 952.541 671.928C952.541 672.852 952.724 673.659 953.091 674.348C953.457 675.023 953.949 675.543 954.565 675.91C955.181 676.262 955.863 676.438 956.611 676.438C957.359 676.438 958.041 676.262 958.657 675.91C959.287 675.543 959.786 675.023 960.153 674.348C960.519 673.659 960.703 672.859 960.703 671.95ZM672.035 698.594V705.7C672.035 706.287 672.16 706.705 672.409 706.954C672.659 707.189 673.091 707.306 673.707 707.306H675.181V709H673.377C672.263 709 671.427 708.743 670.869 708.23C670.312 707.717 670.033 706.873 670.033 705.7V698.594H668.471V696.944H670.033V693.908H672.035V696.944H675.181V698.594H672.035ZM683.591 696.724C684.5 696.724 685.322 696.922 686.055 697.318C686.788 697.699 687.36 698.279 687.771 699.056C688.196 699.833 688.409 700.779 688.409 701.894V709H686.429V702.18C686.429 700.977 686.128 700.061 685.527 699.43C684.926 698.785 684.104 698.462 683.063 698.462C682.007 698.462 681.164 698.792 680.533 699.452C679.917 700.112 679.609 701.073 679.609 702.334V709H677.607V692.72H679.609V698.66C680.005 698.044 680.548 697.567 681.237 697.23C681.941 696.893 682.726 696.724 683.591 696.724ZM702.679 702.51C702.679 702.891 702.657 703.295 702.613 703.72H692.977C693.051 704.908 693.454 705.839 694.187 706.514C694.935 707.174 695.837 707.504 696.893 707.504C697.759 707.504 698.477 707.306 699.049 706.91C699.636 706.499 700.047 705.957 700.281 705.282H702.437C702.115 706.441 701.469 707.387 700.501 708.12C699.533 708.839 698.331 709.198 696.893 709.198C695.749 709.198 694.723 708.941 693.813 708.428C692.919 707.915 692.215 707.189 691.701 706.25C691.188 705.297 690.931 704.197 690.931 702.95C690.931 701.703 691.181 700.611 691.679 699.672C692.178 698.733 692.875 698.015 693.769 697.516C694.679 697.003 695.72 696.746 696.893 696.746C698.037 696.746 699.049 696.995 699.929 697.494C700.809 697.993 701.484 698.682 701.953 699.562C702.437 700.427 702.679 701.41 702.679 702.51ZM700.611 702.092C700.611 701.329 700.443 700.677 700.105 700.134C699.768 699.577 699.306 699.159 698.719 698.88C698.147 698.587 697.509 698.44 696.805 698.44C695.793 698.44 694.928 698.763 694.209 699.408C693.505 700.053 693.102 700.948 692.999 702.092H700.611ZM727.247 696.944L723.485 709H721.417L718.513 699.43L715.609 709H713.541L709.757 696.944H711.803L714.575 707.064L717.567 696.944H719.613L722.539 707.086L725.267 696.944H727.247ZM734.492 709.198C733.363 709.198 732.336 708.941 731.412 708.428C730.503 707.915 729.784 707.189 729.256 706.25C728.743 705.297 728.486 704.197 728.486 702.95C728.486 701.718 728.75 700.633 729.278 699.694C729.821 698.741 730.554 698.015 731.478 697.516C732.402 697.003 733.436 696.746 734.58 696.746C735.724 696.746 736.758 697.003 737.682 697.516C738.606 698.015 739.332 698.733 739.86 699.672C740.403 700.611 740.674 701.703 740.674 702.95C740.674 704.197 740.395 705.297 739.838 706.25C739.295 707.189 738.555 707.915 737.616 708.428C736.677 708.941 735.636 709.198 734.492 709.198ZM734.492 707.438C735.211 707.438 735.885 707.269 736.516 706.932C737.147 706.595 737.653 706.089 738.034 705.414C738.43 704.739 738.628 703.918 738.628 702.95C738.628 701.982 738.437 701.161 738.056 700.486C737.675 699.811 737.176 699.313 736.56 698.99C735.944 698.653 735.277 698.484 734.558 698.484C733.825 698.484 733.15 698.653 732.534 698.99C731.933 699.313 731.449 699.811 731.082 700.486C730.715 701.161 730.532 701.982 730.532 702.95C730.532 703.933 730.708 704.761 731.06 705.436C731.427 706.111 731.911 706.617 732.512 706.954C733.113 707.277 733.773 707.438 734.492 707.438ZM745.308 698.902C745.66 698.213 746.159 697.677 746.804 697.296C747.464 696.915 748.264 696.724 749.202 696.724V698.792H748.674C746.43 698.792 745.308 700.009 745.308 702.444V709H743.306V696.944H745.308V698.902ZM753.515 692.72V709H751.513V692.72H753.515ZM756.179 702.928C756.179 701.696 756.429 700.618 756.927 699.694C757.426 698.755 758.108 698.029 758.973 697.516C759.853 697.003 760.836 696.746 761.921 696.746C762.86 696.746 763.733 696.966 764.539 697.406C765.346 697.831 765.962 698.396 766.387 699.1V692.72H768.411V709H766.387V706.734C765.991 707.453 765.405 708.047 764.627 708.516C763.85 708.971 762.941 709.198 761.899 709.198C760.829 709.198 759.853 708.934 758.973 708.406C758.108 707.878 757.426 707.137 756.927 706.184C756.429 705.231 756.179 704.145 756.179 702.928ZM766.387 702.95C766.387 702.041 766.204 701.249 765.837 700.574C765.471 699.899 764.972 699.386 764.341 699.034C763.725 698.667 763.043 698.484 762.295 698.484C761.547 698.484 760.865 698.66 760.249 699.012C759.633 699.364 759.142 699.877 758.775 700.552C758.409 701.227 758.225 702.019 758.225 702.928C758.225 703.852 758.409 704.659 758.775 705.348C759.142 706.023 759.633 706.543 760.249 706.91C760.865 707.262 761.547 707.438 762.295 707.438C763.043 707.438 763.725 707.262 764.341 706.91C764.972 706.543 765.471 706.023 765.837 705.348C766.204 704.659 766.387 703.859 766.387 702.95Z" fill="white"/>
<defs>
<filter id="filter0_f_501_2" x="87.6145" y="0.284424" width="1265.39" height="922.214" filterUnits="userSpaceOnUse" color-interpolation-filters="sRGB">
<feFlood flood-opacity="0" result="BackgroundImageFix"/>
<feBlend mode="normal" in="SourceGraphic" in2="BackgroundImageFix" result="shape"/>
<feGaussianBlur stdDeviation="30" result="effect1_foregroundBlur_501_2"/>
</filter>
<filter id="filter1_f_501_2" x="305" y="74" width="830" height="830" filterUnits="userSpaceOnUse" color-interpolation-filters="sRGB">
<feFlood flood-opacity="0" result="BackgroundImageFix"/>
<feBlend mode="normal" in="SourceGraphic" in2="BackgroundImageFix" result="shape"/>
<feGaussianBlur stdDeviation="50" result="effect1_foregroundBlur_501_2"/>
</filter>
<linearGradient id="paint0_linear_501_2" x1="720" y1="44.4009" x2="720" y2="617" gradientUnits="userSpaceOnUse">
<stop stop-color="#0F2C3A"/>
<stop offset="1" stop-color="#0F2C3A" stop-opacity="0"/>
</linearGradient>
</defs>
</svg>
