<svg width="70" height="71" viewBox="0 0 70 71" fill="none" xmlns="http://www.w3.org/2000/svg">
<mask id="mask0_276_4001" style="mask-type:luminance" maskUnits="userSpaceOnUse" x="0" y="0" width="70" height="71">
<path d="M70 0H0V71H70V0Z" fill="white"/>
</mask>
<g mask="url(#mask0_276_4001)">
<path d="M47.4916 67.6934C55.0869 64.7835 61.43 59.3178 65.4341 52.2349C69.4382 45.1521 70.8489 36.8921 69.4283 28.8801C68.0043 20.8681 63.8383 13.6002 57.6439 8.32944C51.4463 3.06198 43.6098 0.115768 35.4793 0.00334106C27.349 -0.109084 19.4333 2.6189 13.0935 7.7144C6.75372 12.8099 2.38953 19.9588 0.744287 27.9278C-0.897645 35.8969 0.285081 44.1932 4.09095 51.3851C7.89681 58.5769 14.088 64.2148 21.5973 67.333L23.3648 63.0641C16.8465 60.3593 11.4714 55.4621 8.1677 49.2192C4.86402 42.9763 3.83657 35.7777 5.26375 28.8604C6.69095 21.9429 10.4803 15.7363 15.981 11.3153C21.4817 6.89105 28.3534 4.52351 35.4101 4.6227C42.4668 4.72191 49.2691 7.27793 54.6475 11.851C60.0258 16.4241 63.6434 22.7332 64.8758 29.687C66.1114 36.6408 64.8857 43.8096 61.4101 49.9599C57.9347 56.107 52.4275 60.852 45.8366 63.3783L47.485 67.6934H47.4916Z" fill="white"/>
<path d="M60.2431 24.9914L60.2034 23.3877L58.601 23.3778C55.9185 23.3645 53.2723 23.7349 50.7052 24.4887C48.2638 25.2029 45.9346 26.2512 43.7806 27.607C43.7179 27.6466 43.6552 27.6864 43.5956 27.726C42.3767 20.1108 37.4904 15.0682 36.3407 13.977L35.1812 12.8726L34.0414 14.0001C32.1417 15.8783 30.5263 18.021 29.2445 20.372C28.0221 22.604 27.1169 24.9947 26.5486 27.4747C26.5255 27.5805 26.5023 27.6829 26.4824 27.7887C26.39 27.726 26.2941 27.6665 26.1984 27.607C24.0477 26.2512 21.7185 25.2029 19.2772 24.4887C16.7102 23.7349 14.0474 23.3678 11.3813 23.3778L9.77898 23.3877L9.73934 24.9914C9.68977 26.9125 9.85497 36.8556 17.8697 43.687C23.2019 48.2304 29.1981 49.067 32.3003 49.1628H32.3565L33.8398 49.1099V58.8645L28.6563 64.0526C28.2335 63.8542 27.7643 63.7451 27.2655 63.7451C25.4418 63.7451 23.9618 65.2264 23.9618 67.0517C23.9618 68.8769 25.4418 70.3584 27.2655 70.3584C29.0891 70.3584 30.5691 68.8769 30.5691 67.0517C30.5691 66.5723 30.4668 66.1127 30.2785 65.7026L33.8398 62.1381V64.5981C32.5844 65.0644 31.6958 66.2747 31.6958 67.6932C31.6958 69.5185 33.1725 70.9998 34.9995 70.9998C36.8264 70.9998 38.3031 69.5185 38.3031 67.6932C38.3031 66.2714 37.4078 65.0611 36.1524 64.5949V62.1348L39.6411 65.6266C39.4331 66.0565 39.3173 66.5426 39.3173 67.0517C39.3173 68.8769 40.7942 70.3584 42.6211 70.3584C44.4481 70.3584 45.9248 68.8769 45.9248 67.0517C45.9248 65.2264 44.4448 63.7451 42.6211 63.7451C42.1519 63.7451 41.7092 63.8411 41.3061 64.0195L36.6315 59.344L36.1524 58.8612V49.1099L37.6258 49.1628H37.682C40.7809 49.067 46.7804 48.2304 52.1093 43.687C60.1208 36.8589 60.2892 26.9158 60.2431 24.9914ZM20.0139 41.1674C14.4636 36.439 13.304 29.9381 13.086 26.734C14.8667 26.8464 16.6309 27.1572 18.3488 27.6599C20.4963 28.2914 22.5478 29.214 24.4407 30.4076C25.0785 30.8044 25.6433 31.2376 26.1455 31.684C26.2216 34.0911 26.7864 36.0091 27.1202 37.1333L27.1995 37.4045C28.2268 40.9393 29.948 43.7333 31.6495 45.8199C28.8381 45.6247 24.1766 44.7187 20.0139 41.1674ZM37.3617 34.8418L37.2295 35.0865C36.1425 37.0638 35.4355 39.0314 34.9896 40.8731C34.5468 39.0314 33.8398 37.0638 32.7528 35.0865L32.6174 34.8353C32.0591 33.8101 31.1109 32.0609 29.4691 30.3085C29.5086 29.6405 29.6045 28.9396 29.7697 28.2121C30.2685 26.0264 31.0681 23.9234 32.1417 21.9593C33.0008 20.3853 34.0281 18.9171 35.2076 17.5779C37.0741 19.7205 40.2491 24.2208 40.543 30.2755C38.8812 32.0411 37.9232 33.8068 37.3617 34.8418ZM49.9684 41.1674C45.9082 44.6295 41.3723 45.5785 38.5443 45.8033C40.6454 43.2275 43.3281 38.8593 43.8005 32.9505C43.8335 32.514 43.8567 32.0808 43.8665 31.6542C44.3622 31.2177 44.9172 30.7979 45.5383 30.4076C47.4345 29.214 49.4862 28.2914 51.6337 27.6599C53.3516 27.1572 55.1156 26.8464 56.8964 26.734C56.6751 29.9381 55.5121 36.4423 49.9684 41.1674Z" fill="white"/>
</g>
</svg>
