<svg width="80" height="80" viewBox="0 0 80 80" fill="none" xmlns="http://www.w3.org/2000/svg">
<rect width="80" height="80" rx="40" fill="#102E3C"/>
<rect x="0.6" y="0.6" width="78.8" height="78.8" rx="39.4" stroke="white" stroke-opacity="0.2" stroke-width="1.2"/>
<rect x="11.0352" y="11.0344" width="57.931" height="57.931" rx="28.9655" fill="#102E3C"/>
<rect x="11.6352" y="11.6344" width="56.731" height="56.731" rx="28.3655" stroke="white" stroke-opacity="0.2" stroke-width="1.2"/>
<path d="M46.5862 32.276H41.881L36.51 37.6213C36.4102 37.7237 36.3341 37.8479 36.2873 37.9845C36.2406 38.1212 36.2244 38.2669 36.24 38.4109C36.2556 38.5548 36.3026 38.6933 36.3774 38.8161C36.4522 38.9389 36.5531 39.0429 36.6724 39.1203C38.7321 40.4708 41.5281 40.3779 43.7631 38.0691L48.4683 41.9312L50.3504 40.0001" stroke="white" stroke-width="2" stroke-linecap="round" stroke-linejoin="round"/>
<path d="M48.4691 41.9312L43.7639 46.7587L36.2356 44.8277L29.6483 40.0001" stroke="white" stroke-width="2" stroke-linecap="round" stroke-linejoin="round"/>
<path d="M31.5311 46.7587L34.3542 48.6897L38.1184 49.6552" stroke="white" stroke-width="2" stroke-linecap="round" stroke-linejoin="round"/>
<path d="M33.41 32.2759L39.9973 30.3448L46.5846 32.2759" stroke="white" stroke-width="2" stroke-linecap="round" stroke-linejoin="round"/>
<path d="M29.2283 31.2092L26.3064 37.2051C26.251 37.3185 26.218 37.4421 26.2092 37.5687C26.2004 37.6952 26.216 37.8223 26.2551 37.9427C26.2942 38.0631 26.356 38.1744 26.4371 38.2703C26.5182 38.3661 26.6169 38.4446 26.7275 38.5013L29.6494 40.0002L33.4136 32.2761L30.4917 30.7771C30.3811 30.7203 30.2607 30.6864 30.1373 30.6774C30.0139 30.6683 29.89 30.6843 29.7727 30.7245C29.6554 30.7646 29.5469 30.8281 29.4535 30.9112C29.3601 30.9944 29.2836 31.0957 29.2283 31.2092Z" stroke="white" stroke-width="2" stroke-linecap="round" stroke-linejoin="round"/>
<path d="M49.5077 30.7771L46.5858 32.2761L50.35 40.0002L53.2719 38.5013C53.3826 38.4446 53.4812 38.3661 53.5623 38.2703C53.6434 38.1744 53.7052 38.0631 53.7443 37.9427C53.7835 37.8223 53.7991 37.6952 53.7902 37.5687C53.7814 37.4421 53.7484 37.3185 53.693 37.2051L50.7711 31.2092C50.7158 31.0957 50.6393 30.9944 50.5459 30.9112C50.4525 30.8281 50.344 30.7646 50.2267 30.7245C50.1094 30.6843 49.9855 30.6683 49.8621 30.6774C49.7388 30.6864 49.6183 30.7203 49.5077 30.7771Z" stroke="white" stroke-width="2" stroke-linecap="round" stroke-linejoin="round"/>
</svg>
