<svg width="66" height="64" viewBox="0 0 66 64" fill="none" xmlns="http://www.w3.org/2000/svg">
<path d="M32.4649 41.2444L0 0H66L32.4649 41.2444Z" fill="#1D3F4F"/>
<rect x="5.80078" y="15.0112" width="54.3913" height="41.8" rx="4.5" stroke="white" stroke-width="3"/>
<path d="M22.8913 51.9113C22.8913 57.747 18.1152 62.5002 12.1957 62.5002C6.27614 62.5002 1.5 57.747 1.5 51.9113C1.5 46.0756 6.27614 41.3224 12.1957 41.3224C18.1152 41.3224 22.8913 46.0756 22.8913 51.9113Z" fill="#102D3B" stroke="white" stroke-width="3"/>
<path d="M43.8281 35.5555C43.8281 32.8493 46.0219 30.6555 48.7281 30.6555H62.3499V40.4555H48.7281C46.0219 40.4555 43.8281 38.2617 43.8281 35.5555Z" fill="#102D3B" stroke="white" stroke-width="3"/>
<mask id="path-5-inside-1_305_1558" fill="white">
<ellipse cx="48.7836" cy="35.5556" rx="2.86957" ry="2.84444"/>
</mask>
<ellipse cx="48.7836" cy="35.5556" rx="2.86957" ry="2.84444" fill="#102D3B"/>
<path d="M48.6532 35.5556C48.6532 35.5359 48.6579 35.5101 48.6684 35.4854C48.678 35.4628 48.6899 35.447 48.7007 35.4363C48.7232 35.4141 48.7571 35.4001 48.7836 35.4001V41.4001C52.0004 41.4001 54.6532 38.8082 54.6532 35.5556H48.6532ZM48.7836 35.4001C48.8102 35.4001 48.8441 35.4141 48.8665 35.4363C48.8773 35.447 48.8892 35.4628 48.8989 35.4854C48.9094 35.5101 48.9141 35.5359 48.9141 35.5556H42.9141C42.9141 38.8082 45.5669 41.4001 48.7836 41.4001V35.4001ZM48.9141 35.5556C48.9141 35.5754 48.9094 35.6012 48.8989 35.6258C48.8892 35.6484 48.8773 35.6642 48.8665 35.6749C48.8441 35.6971 48.8102 35.7112 48.7836 35.7112V29.7112C45.5669 29.7112 42.9141 32.303 42.9141 35.5556H48.9141ZM48.7836 35.7112C48.7571 35.7112 48.7232 35.6971 48.7007 35.6749C48.6899 35.6642 48.678 35.6484 48.6684 35.6258C48.6579 35.6012 48.6532 35.5754 48.6532 35.5556H54.6532C54.6532 32.303 52.0004 29.7112 48.7836 29.7112V35.7112Z" fill="white" mask="url(#path-5-inside-1_305_1558)"/>
<path d="M17.5083 55.5845C17.5083 56.1345 17.3633 56.6445 17.0733 57.1145C16.7933 57.5745 16.3733 57.9545 15.8133 58.2545C15.2633 58.5445 14.6083 58.7045 13.8483 58.7345V59.9495H12.8883V58.7195C11.8283 58.6295 10.9733 58.3145 10.3233 57.7745C9.67328 57.2245 9.32828 56.4795 9.28828 55.5395H12.0183C12.0783 56.1395 12.3683 56.5245 12.8883 56.6945V54.3245C12.1083 54.1245 11.4833 53.9295 11.0133 53.7395C10.5533 53.5495 10.1483 53.2445 9.79828 52.8245C9.44828 52.4045 9.27328 51.8295 9.27328 51.0995C9.27328 50.1895 9.60828 49.4595 10.2783 48.9095C10.9583 48.3595 11.8283 48.0495 12.8883 47.9795V46.7645H13.8483V47.9795C14.8983 48.0595 15.7283 48.3645 16.3383 48.8945C16.9483 49.4245 17.2883 50.1595 17.3583 51.0995H14.6133C14.5533 50.5595 14.2983 50.2095 13.8483 50.0495V52.3745C14.6783 52.6045 15.3183 52.8095 15.7683 52.9895C16.2183 53.1695 16.6183 53.4695 16.9683 53.8895C17.3283 54.2995 17.5083 54.8645 17.5083 55.5845ZM11.9883 50.9795C11.9883 51.2295 12.0633 51.4395 12.2133 51.6095C12.3733 51.7795 12.5983 51.9295 12.8883 52.0595V49.9745C12.6083 50.0245 12.3883 50.1345 12.2283 50.3045C12.0683 50.4645 11.9883 50.6895 11.9883 50.9795ZM13.8483 56.7395C14.1483 56.6895 14.3833 56.5695 14.5533 56.3795C14.7333 56.1895 14.8233 55.9545 14.8233 55.6745C14.8233 55.4145 14.7383 55.2045 14.5683 55.0445C14.4083 54.8745 14.1683 54.7295 13.8483 54.6095V56.7395Z" fill="white"/>
</svg>
