<svg width="92" height="91" viewBox="0 0 92 91" fill="none" xmlns="http://www.w3.org/2000/svg">
<path d="M45.2541 58.7767L0 0.920593H92L45.2541 58.7767Z" fill="#1D3F4F"/>
<rect x="7.5" y="21.3734" width="77" height="59.8437" rx="4.5" stroke="white" stroke-width="3"/>
<path d="M32.5 73.7394C32.5 82.273 25.5639 89.1972 17 89.1972C8.43607 89.1972 1.5 82.273 1.5 73.7394C1.5 65.2058 8.43607 58.2816 17 58.2816C25.5639 58.2816 32.5 65.2058 32.5 73.7394Z" fill="#102D3B" stroke="white" stroke-width="3"/>
<path d="M60.5 50.7965C60.5 46.6667 63.8479 43.3188 67.9777 43.3188H87.5V58.2741H67.9777C63.8479 58.2741 60.5 54.9263 60.5 50.7965Z" fill="#102D3B" stroke="white" stroke-width="3"/>
<path d="M70.5 50.7965C70.5 52.1682 69.3842 53.2865 68 53.2865C66.6158 53.2865 65.5 52.1682 65.5 50.7965C65.5 49.4248 66.6158 48.3064 68 48.3064C69.3842 48.3064 70.5 49.4248 70.5 50.7965Z" fill="#102D3B" stroke="white" stroke-width="3"/>
<path d="M20.895 75.6943C20.895 76.2443 20.75 76.7543 20.46 77.2243C20.18 77.6843 19.76 78.0643 19.2 78.3643C18.65 78.6543 17.995 78.8143 17.235 78.8443V80.0593H16.275V78.8293C15.215 78.7393 14.36 78.4243 13.71 77.8843C13.06 77.3343 12.715 76.5893 12.675 75.6493H15.405C15.465 76.2493 15.755 76.6343 16.275 76.8043V74.4343C15.495 74.2343 14.87 74.0393 14.4 73.8493C13.94 73.6593 13.535 73.3543 13.185 72.9343C12.835 72.5143 12.66 71.9393 12.66 71.2093C12.66 70.2993 12.995 69.5693 13.665 69.0193C14.345 68.4693 15.215 68.1593 16.275 68.0893V66.8743H17.235V68.0893C18.285 68.1693 19.115 68.4743 19.725 69.0043C20.335 69.5343 20.675 70.2693 20.745 71.2093H18C17.94 70.6693 17.685 70.3193 17.235 70.1593V72.4843C18.065 72.7143 18.705 72.9193 19.155 73.0993C19.605 73.2793 20.005 73.5793 20.355 73.9993C20.715 74.4093 20.895 74.9743 20.895 75.6943ZM15.375 71.0893C15.375 71.3393 15.45 71.5493 15.6 71.7193C15.76 71.8893 15.985 72.0393 16.275 72.1693V70.0843C15.995 70.1343 15.775 70.2443 15.615 70.4143C15.455 70.5743 15.375 70.7993 15.375 71.0893ZM17.235 76.8493C17.535 76.7993 17.77 76.6793 17.94 76.4893C18.12 76.2993 18.21 76.0643 18.21 75.7843C18.21 75.5243 18.125 75.3143 17.955 75.1543C17.795 74.9843 17.555 74.8393 17.235 74.7193V76.8493Z" fill="white"/>
</svg>
