<svg width="1424" height="765" viewBox="0 0 1424 765" fill="none" xmlns="http://www.w3.org/2000/svg">
<g opacity="0.9">
<path d="M1128.45 747.033L1128.45 629.648L1101.37 588.352L1101.37 528.776L1150.25 497.798L1150.25 327.538L1125.81 291.797L1125.81 187.363" stroke="url(#paint0_linear_276_3462)" stroke-width="0.427836" stroke-miterlimit="10"/>
<path d="M1124.12 187.453C1124.12 186.515 1124.88 185.757 1125.81 185.757C1126.75 185.757 1127.51 186.515 1127.51 187.453C1127.51 188.39 1126.75 189.148 1125.81 189.148C1124.88 189.148 1124.12 188.39 1124.12 187.453Z" fill="#1D3F4F"/>
<path d="M1163.19 741.916L1163.19 623.837L1135.61 581.856L1136.11 528.539L1185 496.37L1185 322.421L1160.55 286.681L1160.55 127.441" stroke="url(#paint1_linear_276_3462)" stroke-width="0.427836" stroke-miterlimit="10"/>
<path d="M1158.86 127.531C1158.86 126.593 1159.62 125.835 1160.56 125.835C1161.49 125.835 1162.25 126.593 1162.25 127.531C1162.25 128.469 1161.49 129.226 1160.56 129.226C1159.62 129.226 1158.86 128.469 1158.86 127.531Z" fill="#1D3F4F"/>
<path d="M1199.19 684.149L1199.19 566.07L1171.61 524.089L1172.11 470.772L1221 438.603L1221 266.259" stroke="url(#paint2_linear_276_3462)" stroke-width="0.427836" stroke-miterlimit="10"/>
<path d="M1219.3 266.349C1219.3 265.411 1220.06 264.654 1220.99 264.654C1221.93 264.654 1222.69 265.411 1222.69 266.349C1222.69 267.287 1221.93 268.045 1220.99 268.045C1220.06 268.045 1219.3 267.287 1219.3 266.349Z" fill="#1D3F4F"/>
<path d="M1285.76 298.088L1285.76 457.075L1310.21 492.824L1310.21 553.203" stroke="url(#paint3_linear_276_3462)" stroke-width="0.427836" stroke-miterlimit="10"/>
<path d="M1287.71 298.188C1287.71 297.114 1286.84 296.24 1285.76 296.24C1284.69 296.24 1283.81 297.114 1283.81 298.188C1283.81 299.261 1284.69 300.136 1285.76 300.136C1286.84 300.136 1287.71 299.261 1287.71 298.188Z" fill="#1D3F4F"/>
<path d="M1257.94 -1.65446e-05L1257.94 85.874L1235.68 108.123L1235.68 188.811L1259.17 212.286L1259.17 373.131L1283.61 408.88L1283.61 609.542L1334.87 660.758L1334.87 764.191" stroke="url(#paint4_linear_276_3462)" stroke-width="0.427836" stroke-miterlimit="10"/>
<path d="M1336.82 762.147C1336.82 763.22 1335.95 764.095 1334.87 764.095C1333.78 764.095 1332.92 763.22 1332.92 762.147C1332.92 761.074 1333.79 760.199 1334.87 760.199C1335.94 760.199 1336.82 761.074 1336.82 762.147Z" fill="url(#paint5_linear_276_3462)"/>
<path d="M1196.31 543.579L1196.31 354.145" stroke="url(#paint6_linear_276_3462)" stroke-width="0.427836" stroke-miterlimit="10"/>
<path d="M1194.61 354.234C1194.61 353.296 1195.37 352.539 1196.31 352.539C1197.24 352.539 1198 353.296 1198 354.234C1198 355.172 1197.24 355.93 1196.31 355.93C1195.37 355.93 1194.61 355.172 1194.61 354.234Z" fill="#1D3F4F"/>
<path d="M1393.27 257.471L1393.27 416.458L1368.83 452.207L1368.83 572.965" stroke="url(#paint7_linear_276_3462)" stroke-width="0.427836" stroke-miterlimit="10"/>
<path d="M1395.21 257.569C1395.21 256.496 1394.34 255.621 1393.26 255.621C1392.19 255.621 1391.31 256.496 1391.31 257.569C1391.31 258.642 1392.19 259.517 1393.26 259.517C1394.34 259.517 1395.21 258.642 1395.21 257.569Z" fill="#1D3F4F"/>
<path d="M1417.71 221.397L1417.71 416.458L1393.26 452.207L1393.26 572.965" stroke="url(#paint8_linear_276_3462)" stroke-width="0.427836" stroke-miterlimit="10"/>
<path d="M1419.67 221.496C1419.67 220.422 1418.79 219.547 1417.72 219.547C1416.64 219.547 1415.77 220.422 1415.77 221.496C1415.77 222.569 1416.64 223.443 1417.72 223.443C1418.79 223.443 1419.67 222.569 1419.67 221.496Z" fill="#1D3F4F"/>
<path d="M1045.56 488.769L1045.56 262.549L1103.4 223.355" stroke="url(#paint9_linear_276_3462)" stroke-width="0.427836" stroke-miterlimit="10"/>
<path d="M1102.38 222.002C1103.16 221.479 1104.21 221.677 1104.73 222.453C1105.26 223.228 1105.06 224.283 1104.28 224.806C1103.51 225.329 1102.45 225.131 1101.93 224.355C1101.4 223.58 1101.6 222.525 1102.38 222.002Z" fill="#1D3F4F"/>
<path d="M1055.46 698.972L1055.46 453.155L1133.67 403.048L1133.67 314.433" stroke="url(#paint10_linear_276_3462)" stroke-width="0.427836" stroke-miterlimit="10"/>
<path d="M1131.98 314.513C1131.98 313.575 1132.74 312.817 1133.68 312.817C1134.62 312.817 1135.38 313.575 1135.38 314.513C1135.38 315.451 1134.62 316.208 1133.68 316.208C1132.74 316.208 1131.98 315.451 1131.98 314.513Z" fill="#1D3F4F"/>
<path d="M1034.58 698.972L1034.58 404.978L1075.46 378.094L1075.46 281.082" stroke="url(#paint11_linear_276_3462)" stroke-width="0.427836" stroke-miterlimit="10"/>
<path d="M1073.77 281.172C1073.77 280.234 1074.52 279.476 1075.46 279.476C1076.4 279.476 1077.16 280.234 1077.16 281.172C1077.16 282.11 1076.4 282.867 1075.46 282.867C1074.52 282.867 1073.77 282.11 1073.77 281.172Z" fill="#1D3F4F" fill-opacity="0.8"/>
<path d="M836.612 531.604L836.612 436.08L886.425 386.307L886.425 306.592L886.425 212.34" stroke="url(#paint12_linear_276_3462)" stroke-width="0.427836" stroke-miterlimit="10"/>
<path d="M884.727 212.42C884.727 211.482 885.485 210.724 886.423 210.724C887.362 210.724 888.12 211.482 888.12 212.42C888.12 213.358 887.362 214.115 886.423 214.115C885.485 214.115 884.727 213.358 884.727 212.42Z" fill="#1D3F4F" fill-opacity="0.5"/>
<path d="M843.608 704.896L843.608 609.372L893.421 559.599L893.421 479.885L893.421 419.713L926.636 386.525L926.636 245.296" stroke="url(#paint13_linear_276_3462)" stroke-width="0.427836" stroke-miterlimit="10"/>
<path d="M924.938 245.377C924.938 244.439 925.696 243.681 926.634 243.681C927.573 243.681 928.331 244.439 928.331 245.377C928.331 246.315 927.573 247.072 926.634 247.072C925.696 247.072 924.938 246.315 924.938 245.377Z" fill="#1D3F4F" fill-opacity="0.5"/>
<path d="M861.308 534.764L861.308 432.043" stroke="url(#paint14_linear_276_3462)" stroke-width="0.427836" stroke-miterlimit="10"/>
<path d="M861.306 430.865C860.604 430.865 860.037 431.431 860.037 432.132C860.037 432.834 860.604 433.4 861.306 433.4C862.009 433.4 862.575 432.834 862.575 432.132C862.575 431.431 862.009 430.865 861.306 430.865Z" fill="url(#paint15_linear_276_3462)" stroke="url(#paint16_linear_276_3462)" stroke-width="0.855672"/>
<path d="M1098.31 549.744L1098.31 447.024" stroke="url(#paint17_linear_276_3462)" stroke-width="0.427836" stroke-miterlimit="10"/>
<path d="M1096.61 447.113C1096.61 446.175 1097.37 445.417 1098.31 445.417C1099.24 445.417 1100 446.175 1100 447.113C1100 448.051 1099.24 448.808 1098.31 448.808C1097.37 448.808 1096.61 448.051 1096.61 447.113Z" fill="#1D3F4F"/>
<path d="M1014.31 531.049L1014.31 313.207" stroke="url(#paint18_linear_276_3462)" stroke-width="0.427836" stroke-miterlimit="10"/>
<path d="M1012.61 313.288C1012.61 312.351 1013.37 311.592 1014.31 311.592C1015.24 311.592 1016 312.351 1016 313.288C1016 314.224 1015.24 314.983 1014.31 314.983C1013.37 314.983 1012.61 314.224 1012.61 313.288Z" fill="#1D3F4F"/>
<path d="M1103.35 331.406L1103.35 389.205L1050.45 422.132" stroke="url(#paint19_linear_276_3462)" stroke-width="0.427836" stroke-miterlimit="10"/>
<path d="M1105.04 331.494C1105.04 330.557 1104.28 329.799 1103.35 329.799C1102.41 329.799 1101.65 330.557 1101.65 331.494C1101.65 332.432 1102.41 333.19 1103.35 333.19C1104.28 333.19 1105.04 332.432 1105.04 331.494Z" fill="#1D3F4F"/>
<path d="M1002.21 535.381L1002.21 431.389L973.306 402.503L973.306 273.259" stroke="url(#paint20_linear_276_3462)" stroke-width="0.427836" stroke-miterlimit="10"/>
<path d="M971.609 273.34C971.609 272.402 972.368 271.645 973.306 271.645C974.245 271.645 975.003 272.402 975.003 273.34C975.003 274.278 974.245 275.036 973.306 275.036C972.368 275.036 971.609 274.278 971.609 273.34Z" fill="#1D3F4F"/>
<path d="M989.605 533.988L989.605 452.461L958.98 421.861L960.307 362.14" stroke="url(#paint21_linear_276_3462)" stroke-width="0.427836" stroke-miterlimit="10"/>
<path d="M958.609 362.188C958.627 361.25 959.403 360.51 960.342 360.529C961.281 360.547 962.021 361.322 962.003 362.26C961.985 363.198 961.209 363.938 960.27 363.919C959.331 363.901 958.591 363.126 958.609 362.188Z" fill="#1D3F4F"/>
<path d="M966.886 547.032L966.886 491.965" stroke="url(#paint22_linear_276_3462)" stroke-width="0.427836" stroke-miterlimit="10"/>
<path d="M965.188 492.054C965.188 491.116 965.946 490.358 966.884 490.358C967.823 490.358 968.581 491.116 968.581 492.054C968.581 492.992 967.823 493.749 966.884 493.749C965.946 493.749 965.188 492.992 965.188 492.054Z" fill="url(#paint23_linear_276_3462)" fill-opacity="0.5"/>
<path d="M1253.73 603.656L1253.73 412.248" stroke="url(#paint24_linear_276_3462)" stroke-width="0.427836" stroke-miterlimit="10"/>
<path d="M1252.04 412.338C1252.04 411.402 1252.8 410.642 1253.74 410.642C1254.67 410.642 1255.43 411.402 1255.43 412.338C1255.43 413.274 1254.67 414.033 1253.74 414.033C1252.8 414.033 1252.04 413.274 1252.04 412.338Z" fill="#1D3F4F"/>
<path d="M1417.71 572.965L1417.71 517.898" stroke="url(#paint25_linear_276_3462)" stroke-width="0.427836" stroke-miterlimit="10"/>
<path d="M1416.01 517.987C1416.01 517.049 1416.77 516.292 1417.7 516.292C1418.64 516.292 1419.4 517.049 1419.4 517.987C1419.4 518.925 1418.64 519.683 1417.7 519.683C1416.77 519.683 1416.01 518.925 1416.01 517.987Z" fill="#1D3F4F"/>
<path d="M1338.52 531.05L1338.52 475.992" stroke="url(#paint26_linear_276_3462)" stroke-width="0.427836" stroke-miterlimit="10"/>
<path d="M1336.82 476.075C1336.82 475.137 1337.58 474.379 1338.52 474.379C1339.46 474.379 1340.21 475.137 1340.21 476.075C1340.21 477.013 1339.46 477.77 1338.52 477.77C1337.58 477.77 1336.82 477.013 1336.82 476.075Z" fill="#1D3F4F"/>
<path d="M1230.61 534.301L1230.61 297.611" stroke="url(#paint27_linear_276_3462)" stroke-width="0.427836" stroke-miterlimit="10"/>
<path d="M1229.46 297.443C1229.46 296.505 1230.22 295.747 1231.16 295.747C1232.1 295.747 1232.85 296.505 1232.85 297.443C1232.85 298.381 1232.1 299.138 1231.16 299.138C1230.22 299.138 1229.46 298.381 1229.46 297.443Z" fill="#1D3F4F"/>
<path d="M1348.67 572.965L1348.67 419.804L1363.29 405.194L1363.29 180.381" stroke="url(#paint28_linear_276_3462)" stroke-width="0.427836" stroke-miterlimit="10"/>
<path d="M1361.59 180.462C1361.59 179.524 1362.35 178.766 1363.29 178.766C1364.23 178.766 1364.99 179.524 1364.99 180.462C1364.99 181.4 1364.23 182.157 1363.29 182.157C1362.35 182.157 1361.59 181.4 1361.59 180.462Z" fill="#1D3F4F"/>
<path d="M1328.36 553.203L1328.36 448.877L1310.21 421.335L1310.21 258.461" stroke="url(#paint29_linear_276_3462)" stroke-width="0.427836" stroke-miterlimit="10"/>
<path d="M1308.52 258.551C1308.52 257.613 1309.27 256.855 1310.21 256.855C1311.15 256.855 1311.91 257.613 1311.91 258.551C1311.91 259.489 1311.15 260.246 1310.21 260.246C1309.27 260.246 1308.52 259.489 1308.52 258.551Z" fill="#1D3F4F"/>
<path d="M810.956 536.328L810.956 497.693L757.307 497.693L757.307 197.359" stroke="url(#paint30_linear_276_3462)" stroke-width="0.427836" stroke-miterlimit="10"/>
<path d="M755.609 197.439C755.609 196.503 756.369 195.744 757.306 195.744C758.243 195.744 759.003 196.503 759.003 197.439C759.003 198.376 758.243 199.135 757.306 199.135C756.369 199.135 755.609 198.376 755.609 197.439Z" fill="#1D3F4F" fill-opacity="0.5"/>
<path d="M769.441 534.633L769.441 520.204L728.31 520.204L728.31 403.081" stroke="#1D3F4F" stroke-width="0.427836" stroke-miterlimit="10"/>
<path d="M726.609 403.17C726.609 402.232 727.368 401.475 728.306 401.475C729.245 401.475 730.003 402.232 730.003 403.17C730.003 404.108 729.245 404.866 728.306 404.866C727.368 404.866 726.609 404.108 726.609 403.17Z" fill="#1D3F4F" fill-opacity="0.5"/>
<path d="M779.479 138.29L779.479 325.613L779.479 360.848L813.659 326.695L813.659 93.4949" stroke="url(#paint31_linear_276_3462)" stroke-width="0.427836" stroke-miterlimit="10"/>
<path d="M781.175 138.37C781.175 137.432 780.417 136.674 779.478 136.674C778.539 136.674 777.781 137.432 777.781 138.37C777.781 139.308 778.539 140.065 779.478 140.065C780.417 140.065 781.175 139.308 781.175 138.37Z" fill="#1D3F4F" fill-opacity="0.5"/>
<path d="M811.961 93.5754C811.961 92.639 812.721 91.8799 813.658 91.8799C814.595 91.8799 815.355 92.639 815.355 93.5754C815.355 94.5118 814.595 95.2709 813.658 95.2709C812.721 95.2709 811.961 94.5118 811.961 93.5754Z" fill="#1D3F4F" fill-opacity="0.5"/>
<path d="M866.433 151.656C866.433 150.718 865.675 149.96 864.736 149.96C863.797 149.96 863.039 150.718 863.039 151.656C863.039 152.594 863.797 153.351 864.736 153.351C865.675 153.351 866.433 152.594 866.433 151.656Z" fill="#1D3F4F" fill-opacity="0.5"/>
<path d="M864.737 151.573L864.737 362.569L808.877 418.385L807.144 456.127L779.471 456.127L779.471 408.203L838.283 349.438L838.283 216.28" stroke="url(#paint32_linear_276_3462)" stroke-width="0.427836" stroke-miterlimit="10"/>
<path d="M836.586 216.362C836.586 215.426 837.346 214.667 838.283 214.667C839.22 214.667 839.98 215.426 839.98 216.362C839.98 217.299 839.22 218.058 838.283 218.058C837.346 218.058 836.586 217.299 836.586 216.362Z" fill="#1D3F4F" fill-opacity="0.5"/>
<path d="M725.25 764.097L725.25 695.565L740.152 682.858L740.152 651.483L725.25 640.363L725.25 548.248" stroke="url(#paint33_linear_276_3462)" stroke-width="0.552015" stroke-miterlimit="10"/>
<path d="M723.547 548.328C723.547 547.391 724.305 546.633 725.244 546.633C726.182 546.633 726.941 547.391 726.941 548.328C726.941 549.266 726.182 550.024 725.244 550.024C724.305 550.024 723.547 549.266 723.547 548.328Z" fill="url(#paint34_linear_276_3462)"/>
<path d="M404.9 747.033L404.9 629.648L377.823 588.352L377.823 528.776L426.706 497.798L426.706 327.538L402.264 291.797L402.264 187.363" stroke="url(#paint35_linear_276_3462)" stroke-width="0.427836" stroke-miterlimit="10"/>
<path d="M400.57 187.453C400.57 186.515 401.329 185.757 402.267 185.757C403.206 185.757 403.964 186.515 403.964 187.453C403.964 188.39 403.206 189.148 402.267 189.148C401.329 189.148 400.57 188.39 400.57 187.453Z" fill="#1D3F4F"/>
<path d="M439.642 741.916L439.642 623.837L412.059 581.856L412.565 528.539L461.448 496.37L461.448 322.421L437.007 286.681L437.007 127.441" stroke="url(#paint36_linear_276_3462)" stroke-width="0.427836" stroke-miterlimit="10"/>
<path d="M435.313 127.531C435.313 126.593 436.071 125.835 437.009 125.835C437.948 125.835 438.706 126.593 438.706 127.531C438.706 128.469 437.948 129.226 437.009 129.226C436.071 129.226 435.313 128.469 435.313 127.531Z" fill="#1D3F4F"/>
<path d="M475.642 684.149L475.642 566.07L448.059 524.089L448.565 470.772L497.448 438.603L497.448 266.259" stroke="url(#paint37_linear_276_3462)" stroke-width="0.427836" stroke-miterlimit="10"/>
<path d="M495.75 266.349C495.75 265.411 496.508 264.654 497.447 264.654C498.386 264.654 499.144 265.411 499.144 266.349C499.144 267.287 498.386 268.045 497.447 268.045C496.508 268.045 495.75 267.287 495.75 266.349Z" fill="#1D3F4F"/>
<path d="M562.218 298.088L562.218 457.075L586.659 492.824L586.659 553.203" stroke="url(#paint38_linear_276_3462)" stroke-width="0.427836" stroke-miterlimit="10"/>
<path d="M564.167 298.188C564.167 297.114 563.292 296.24 562.218 296.24C561.143 296.24 560.268 297.114 560.268 298.188C560.268 299.261 561.143 300.136 562.218 300.136C563.292 300.136 564.167 299.261 564.167 298.188Z" fill="#1D3F4F"/>
<path d="M534.397 -1.65446e-05L534.397 85.874L512.13 108.123L512.13 188.811L535.624 212.286L535.624 373.131L560.066 408.88L560.066 609.542L611.323 660.758L611.323 764.191" stroke="url(#paint39_linear_276_3462)" stroke-width="0.427836" stroke-miterlimit="10"/>
<path d="M613.269 762.147C613.269 763.22 612.402 764.095 611.319 764.095C610.236 764.095 609.37 763.22 609.37 762.147C609.37 761.074 610.245 760.199 611.319 760.199C612.393 760.199 613.269 761.074 613.269 762.147Z" fill="url(#paint40_linear_276_3462)"/>
<path d="M472.761 543.579L472.761 354.145" stroke="url(#paint41_linear_276_3462)" stroke-width="0.427836" stroke-miterlimit="10"/>
<path d="M471.063 354.234C471.063 353.296 471.821 352.539 472.759 352.539C473.698 352.539 474.456 353.296 474.456 354.234C474.456 355.172 473.698 355.93 472.759 355.93C471.821 355.93 471.063 355.172 471.063 354.234Z" fill="#1D3F4F"/>
<path d="M669.722 257.471L669.722 416.458L645.28 452.207L645.28 572.965" stroke="url(#paint42_linear_276_3462)" stroke-width="0.427836" stroke-miterlimit="10"/>
<path d="M671.667 257.569C671.667 256.496 670.792 255.621 669.718 255.621C668.643 255.621 667.768 256.496 667.768 257.569C667.768 258.642 668.643 259.517 669.718 259.517C670.792 259.517 671.667 258.642 671.667 257.569Z" fill="#1D3F4F"/>
<path d="M694.159 221.397L694.159 416.458L669.718 452.207L669.718 572.965" stroke="url(#paint43_linear_276_3462)" stroke-width="0.427836" stroke-miterlimit="10"/>
<path d="M696.12 221.496C696.12 220.422 695.245 219.547 694.171 219.547C693.097 219.547 692.221 220.422 692.221 221.496C692.221 222.569 693.097 223.443 694.171 223.443C695.245 223.443 696.12 222.569 696.12 221.496Z" fill="#1D3F4F"/>
<path d="M322.008 488.769L322.008 262.549L379.855 223.355" stroke="url(#paint44_linear_276_3462)" stroke-width="0.427836" stroke-miterlimit="10"/>
<path d="M378.832 222.002C379.608 221.479 380.664 221.677 381.188 222.453C381.711 223.228 381.513 224.283 380.736 224.806C379.96 225.329 378.904 225.131 378.381 224.355C377.857 223.58 378.056 222.525 378.832 222.002Z" fill="#1D3F4F"/>
<path d="M331.911 698.972L331.911 453.155L410.128 403.048L410.128 314.433" stroke="url(#paint45_linear_276_3462)" stroke-width="0.427836" stroke-miterlimit="10"/>
<path d="M408.438 314.513C408.438 313.575 409.196 312.817 410.134 312.817C411.073 312.817 411.831 313.575 411.831 314.513C411.831 315.451 411.073 316.208 410.134 316.208C409.196 316.208 408.438 315.451 408.438 314.513Z" fill="#1D3F4F"/>
<path d="M311.03 698.972L311.03 404.978L351.917 378.094L351.917 281.082" stroke="url(#paint46_linear_276_3462)" stroke-width="0.427836" stroke-miterlimit="10"/>
<path d="M350.219 281.172C350.219 280.234 350.977 279.476 351.916 279.476C352.854 279.476 353.612 280.234 353.612 281.172C353.612 282.11 352.854 282.867 351.916 282.867C350.977 282.867 350.219 282.11 350.219 281.172Z" fill="#1D3F4F" fill-opacity="0.8"/>
<path d="M113.065 531.604L113.065 436.08L162.878 386.307L162.878 306.592L162.878 212.34" stroke="url(#paint47_linear_276_3462)" stroke-width="0.427836" stroke-miterlimit="10"/>
<path d="M161.18 212.42C161.18 211.482 161.938 210.724 162.877 210.724C163.815 210.724 164.573 211.482 164.573 212.42C164.573 213.358 163.815 214.115 162.877 214.115C161.938 214.115 161.18 213.358 161.18 212.42Z" fill="#1D3F4F" fill-opacity="0.5"/>
<path d="M120.061 704.896L120.061 609.372L169.874 559.599L169.874 479.885L169.874 419.713L203.089 386.525L203.089 245.296" stroke="url(#paint48_linear_276_3462)" stroke-width="0.427836" stroke-miterlimit="10"/>
<path d="M201.391 245.377C201.391 244.439 202.149 243.681 203.087 243.681C204.026 243.681 204.784 244.439 204.784 245.377C204.784 246.315 204.026 247.072 203.087 247.072C202.149 247.072 201.391 246.315 201.391 245.377Z" fill="#1D3F4F" fill-opacity="0.5"/>
<path d="M137.761 534.764L137.761 432.043" stroke="url(#paint49_linear_276_3462)" stroke-width="0.427836" stroke-miterlimit="10"/>
<path d="M137.759 430.865C137.057 430.865 136.49 431.431 136.49 432.132C136.49 432.834 137.057 433.4 137.759 433.4C138.462 433.4 139.028 432.834 139.028 432.132C139.028 431.431 138.462 430.865 137.759 430.865Z" fill="url(#paint50_linear_276_3462)" stroke="url(#paint51_linear_276_3462)" stroke-width="0.855672"/>
<path d="M374.761 549.744L374.761 447.024" stroke="url(#paint52_linear_276_3462)" stroke-width="0.427836" stroke-miterlimit="10"/>
<path d="M373.063 447.113C373.063 446.175 373.821 445.417 374.759 445.417C375.698 445.417 376.456 446.175 376.456 447.113C376.456 448.051 375.698 448.808 374.759 448.808C373.821 448.808 373.063 448.051 373.063 447.113Z" fill="#1D3F4F"/>
<path d="M290.761 531.049L290.761 313.207" stroke="url(#paint53_linear_276_3462)" stroke-width="0.427836" stroke-miterlimit="10"/>
<path d="M289.063 313.288C289.063 312.351 289.822 311.592 290.759 311.592C291.697 311.592 292.456 312.351 292.456 313.288C292.456 314.224 291.697 314.983 290.759 314.983C289.822 314.983 289.063 314.224 289.063 313.288Z" fill="#1D3F4F"/>
<path d="M379.8 331.406L379.8 389.205L326.9 422.132" stroke="url(#paint54_linear_276_3462)" stroke-width="0.427836" stroke-miterlimit="10"/>
<path d="M381.495 331.494C381.495 330.557 380.737 329.799 379.798 329.799C378.86 329.799 378.102 330.557 378.102 331.494C378.102 332.432 378.86 333.19 379.798 333.19C380.737 333.19 381.495 332.432 381.495 331.494Z" fill="#1D3F4F"/>
<path d="M278.659 535.381L278.659 431.389L249.759 402.503L249.759 273.259" stroke="url(#paint55_linear_276_3462)" stroke-width="0.427836" stroke-miterlimit="10"/>
<path d="M248.063 273.34C248.063 272.402 248.821 271.645 249.759 271.645C250.698 271.645 251.456 272.402 251.456 273.34C251.456 274.278 250.698 275.036 249.759 275.036C248.821 275.036 248.063 274.278 248.063 273.34Z" fill="#1D3F4F"/>
<path d="M266.058 533.988L266.058 452.461L235.433 421.861L236.76 362.14" stroke="url(#paint56_linear_276_3462)" stroke-width="0.427836" stroke-miterlimit="10"/>
<path d="M235.062 362.188C235.08 361.25 235.856 360.51 236.795 360.529C237.734 360.547 238.474 361.322 238.456 362.26C238.438 363.198 237.662 363.938 236.723 363.919C235.784 363.901 235.044 363.126 235.062 362.188Z" fill="#1D3F4F"/>
<path d="M243.339 547.032L243.339 491.965" stroke="url(#paint57_linear_276_3462)" stroke-width="0.427836" stroke-miterlimit="10"/>
<path d="M241.641 492.054C241.641 491.116 242.399 490.358 243.337 490.358C244.276 490.358 245.034 491.116 245.034 492.054C245.034 492.992 244.276 493.749 243.337 493.749C242.399 493.749 241.641 492.992 241.641 492.054Z" fill="url(#paint58_linear_276_3462)" fill-opacity="0.5"/>
<path d="M530.183 603.656L530.183 412.248" stroke="url(#paint59_linear_276_3462)" stroke-width="0.427836" stroke-miterlimit="10"/>
<path d="M528.492 412.338C528.492 411.402 529.252 410.642 530.189 410.642C531.126 410.642 531.886 411.402 531.886 412.338C531.886 413.274 531.126 414.033 530.189 414.033C529.252 414.033 528.492 413.274 528.492 412.338Z" fill="#1D3F4F"/>
<path d="M694.159 572.965L694.159 517.898" stroke="url(#paint60_linear_276_3462)" stroke-width="0.427836" stroke-miterlimit="10"/>
<path d="M692.461 517.987C692.461 517.049 693.219 516.292 694.158 516.292C695.096 516.292 695.855 517.049 695.855 517.987C695.855 518.925 695.096 519.683 694.158 519.683C693.219 519.683 692.461 518.925 692.461 517.987Z" fill="#1D3F4F"/>
<path d="M614.972 531.05L614.972 475.992" stroke="url(#paint61_linear_276_3462)" stroke-width="0.427836" stroke-miterlimit="10"/>
<path d="M613.273 476.075C613.273 475.137 614.032 474.379 614.97 474.379C615.909 474.379 616.667 475.137 616.667 476.075C616.667 477.013 615.909 477.77 614.97 477.77C614.032 477.77 613.273 477.013 613.273 476.075Z" fill="#1D3F4F"/>
<path d="M507.066 534.301L507.066 297.611" stroke="url(#paint62_linear_276_3462)" stroke-width="0.427836" stroke-miterlimit="10"/>
<path d="M505.914 297.443C505.914 296.505 506.672 295.747 507.611 295.747C508.55 295.747 509.308 296.505 509.308 297.443C509.308 298.381 508.55 299.138 507.611 299.138C506.672 299.138 505.914 298.381 505.914 297.443Z" fill="#1D3F4F"/>
<path d="M625.123 572.965L625.123 419.804L639.745 405.194L639.745 180.381" stroke="url(#paint63_linear_276_3462)" stroke-width="0.427836" stroke-miterlimit="10"/>
<path d="M638.047 180.462C638.047 179.524 638.805 178.766 639.744 178.766C640.682 178.766 641.441 179.524 641.441 180.462C641.441 181.4 640.682 182.157 639.744 182.157C638.805 182.157 638.047 181.4 638.047 180.462Z" fill="#1D3F4F"/>
<path d="M604.816 553.203L604.816 448.877L586.665 421.335L586.665 258.461" stroke="url(#paint64_linear_276_3462)" stroke-width="0.427836" stroke-miterlimit="10"/>
<path d="M584.969 258.551C584.969 257.613 585.727 256.855 586.666 256.855C587.604 256.855 588.362 257.613 588.362 258.551C588.362 259.489 587.604 260.246 586.666 260.246C585.727 260.246 584.969 259.489 584.969 258.551Z" fill="#1D3F4F"/>
<path d="M87.4093 536.328L87.4093 497.693L33.7601 497.693L33.7601 197.359" stroke="url(#paint65_linear_276_3462)" stroke-width="0.427836" stroke-miterlimit="10"/>
<path d="M32.0625 197.439C32.0625 196.503 32.8222 195.744 33.7593 195.744C34.6965 195.744 35.4562 196.503 35.4562 197.439C35.4562 198.376 34.6965 199.135 33.7593 199.135C32.8222 199.135 32.0625 198.376 32.0625 197.439Z" fill="#1D3F4F" fill-opacity="0.5"/>
<path d="M45.8937 534.633L45.8937 520.204L4.76322 520.204L4.76322 403.081" stroke="#1D3F4F" stroke-width="0.427836" stroke-miterlimit="10"/>
<path d="M3.06253 403.17C3.06253 402.232 3.82065 401.475 4.75933 401.475C5.69801 401.475 6.45618 402.232 6.45618 403.17C6.45618 404.108 5.69801 404.866 4.75933 404.866C3.82065 404.866 3.06253 404.108 3.06253 403.17Z" fill="#1D3F4F" fill-opacity="0.5"/>
<path d="M55.9318 138.29L55.9318 325.613L55.9318 360.848L90.1124 326.695L90.1124 93.4949" stroke="url(#paint66_linear_276_3462)" stroke-width="0.427836" stroke-miterlimit="10"/>
<path d="M57.6281 138.37C57.6281 137.432 56.8699 136.674 55.9312 136.674C54.9925 136.674 54.2344 137.432 54.2344 138.37C54.2344 139.308 54.9925 140.065 55.9312 140.065C56.8699 140.065 57.6281 139.308 57.6281 138.37Z" fill="#1D3F4F" fill-opacity="0.5"/>
<path d="M88.414 93.5754C88.414 92.639 89.1737 91.8799 90.1109 91.8799C91.048 91.8799 91.8077 92.639 91.8077 93.5754C91.8077 94.5118 91.048 95.2709 90.1109 95.2709C89.1737 95.2709 88.414 94.5118 88.414 93.5754Z" fill="#1D3F4F" fill-opacity="0.5"/>
<path d="M142.886 151.656C142.886 150.718 142.128 149.96 141.189 149.96C140.25 149.96 139.492 150.718 139.492 151.656C139.492 152.594 140.25 153.351 141.189 153.351C142.128 153.351 142.886 152.594 142.886 151.656Z" fill="#1D3F4F" fill-opacity="0.5"/>
<path d="M141.191 151.573L141.191 362.569L85.33 418.385L83.5971 456.127L55.924 456.127L55.924 408.203L114.736 349.438L114.736 216.28" stroke="url(#paint67_linear_276_3462)" stroke-width="0.427836" stroke-miterlimit="10"/>
<path d="M113.039 216.362C113.039 215.426 113.799 214.667 114.736 214.667C115.673 214.667 116.433 215.426 116.433 216.362C116.433 217.299 115.673 218.058 114.736 218.058C113.799 218.058 113.039 217.299 113.039 216.362Z" fill="#1D3F4F" fill-opacity="0.5"/>
<path d="M1.70311 764.097L1.70311 695.565L16.6046 682.858L16.6046 651.483L1.70311 640.363L1.70311 548.248" stroke="url(#paint68_linear_276_3462)" stroke-width="0.552015" stroke-miterlimit="10"/>
<path d="M-2.38216e-05 548.328C-2.38104e-05 547.391 0.758146 546.633 1.69683 546.633C2.63551 546.633 3.39368 547.391 3.39368 548.328C3.39368 549.266 2.63551 550.024 1.69683 550.024C0.758146 550.024 -2.38328e-05 549.266 -2.38216e-05 548.328Z" fill="url(#paint69_linear_276_3462)"/>
</g>
<defs>
<linearGradient id="paint0_linear_276_3462" x1="1101.13" y1="124.847" x2="1131.41" y2="121.664" gradientUnits="userSpaceOnUse">
<stop stop-color="#406474"/>
<stop offset="1" stop-color="#1D3F4F"/>
</linearGradient>
<linearGradient id="paint1_linear_276_3462" x1="1155.89" y1="411.045" x2="1185.25" y2="411.056" gradientUnits="userSpaceOnUse">
<stop stop-color="#0F2C3A"/>
<stop offset="1" stop-color="#1D3F4F"/>
</linearGradient>
<linearGradient id="paint2_linear_276_3462" x1="1191.89" y1="459.132" x2="1221.25" y2="459.147" gradientUnits="userSpaceOnUse">
<stop stop-color="#0F2C3A"/>
<stop offset="1" stop-color="#1D3F4F"/>
</linearGradient>
<linearGradient id="paint3_linear_276_3462" x1="1295.8" y1="415.833" x2="1310.33" y2="415.839" gradientUnits="userSpaceOnUse">
<stop stop-color="#0F2C3A"/>
<stop offset="1" stop-color="#1D3F4F"/>
</linearGradient>
<linearGradient id="paint4_linear_276_3462" x1="1276.41" y1="352.704" x2="1335.38" y2="352.738" gradientUnits="userSpaceOnUse">
<stop stop-color="#0F2C3A"/>
<stop offset="1" stop-color="#1D3F4F"/>
</linearGradient>
<linearGradient id="paint5_linear_276_3462" x1="1334.87" y1="764.095" x2="1334.87" y2="-1.93561" gradientUnits="userSpaceOnUse">
<stop stop-color="#5082C2" stop-opacity="0"/>
<stop offset="0.04" stop-color="#498AC6" stop-opacity="0.08"/>
<stop offset="0.14" stop-color="#38A0D3" stop-opacity="0.29"/>
<stop offset="0.25" stop-color="#29B4DF" stop-opacity="0.48"/>
<stop offset="0.36" stop-color="#1CC5E9" stop-opacity="0.64"/>
<stop offset="0.48" stop-color="#12D2F1" stop-opacity="0.77"/>
<stop offset="0.59" stop-color="#0ADDF7" stop-opacity="0.87"/>
<stop offset="0.71" stop-color="#04E5FB" stop-opacity="0.94"/>
<stop offset="0.84" stop-color="#01E9FE" stop-opacity="0.99"/>
<stop offset="0.98" stop-color="#24BBE3"/>
<stop offset="0.99" stop-color="#4591CA"/>
<stop offset="1" stop-color="#5083C2"/>
</linearGradient>
<linearGradient id="paint6_linear_276_3462" x1="1195.81" y1="543.579" x2="1195.81" y2="354.145" gradientUnits="userSpaceOnUse">
<stop stop-color="#0F2C3A"/>
<stop offset="1" stop-color="#1D3F4F"/>
</linearGradient>
<linearGradient id="paint7_linear_276_3462" x1="1378.86" y1="403.084" x2="1393.4" y2="403.089" gradientUnits="userSpaceOnUse">
<stop stop-color="#0F2C3A"/>
<stop offset="1" stop-color="#1D3F4F"/>
</linearGradient>
<linearGradient id="paint8_linear_276_3462" x1="1403.3" y1="383.659" x2="1417.83" y2="383.664" gradientUnits="userSpaceOnUse">
<stop stop-color="#0F2C3A"/>
<stop offset="1" stop-color="#1D3F4F"/>
</linearGradient>
<linearGradient id="paint9_linear_276_3462" x1="1069.31" y1="345.854" x2="1103.7" y2="345.887" gradientUnits="userSpaceOnUse">
<stop stop-color="#0F2C3A"/>
<stop offset="1" stop-color="#1D3F4F"/>
</linearGradient>
<linearGradient id="paint10_linear_276_3462" x1="1087.58" y1="491.913" x2="1134.08" y2="491.955" gradientUnits="userSpaceOnUse">
<stop stop-color="#0F2C3A"/>
<stop offset="1" stop-color="#1D3F4F"/>
</linearGradient>
<linearGradient id="paint11_linear_276_3462" x1="1051.37" y1="473.955" x2="1075.68" y2="473.965" gradientUnits="userSpaceOnUse">
<stop stop-color="#0F2C3A"/>
<stop offset="1" stop-color="#1D3F4F"/>
</linearGradient>
<linearGradient id="paint12_linear_276_3462" x1="857.069" y1="359.693" x2="886.683" y2="359.713" gradientUnits="userSpaceOnUse">
<stop stop-color="#0F2C3A"/>
<stop offset="1" stop-color="#1D3F4F"/>
</linearGradient>
<linearGradient id="paint13_linear_276_3462" x1="877.706" y1="457.419" x2="927.066" y2="457.459" gradientUnits="userSpaceOnUse">
<stop stop-color="#0F2C3A"/>
<stop offset="1" stop-color="#1D3F4F"/>
</linearGradient>
<linearGradient id="paint14_linear_276_3462" x1="860.808" y1="534.764" x2="860.808" y2="432.043" gradientUnits="userSpaceOnUse">
<stop stop-color="#0F2C3A"/>
<stop offset="1" stop-color="#1D3F4F"/>
</linearGradient>
<linearGradient id="paint15_linear_276_3462" x1="861.003" y1="432.002" x2="863.021" y2="432.011" gradientUnits="userSpaceOnUse">
<stop stop-color="#0F2C3A"/>
<stop offset="1" stop-color="#1D3F4F"/>
</linearGradient>
<linearGradient id="paint16_linear_276_3462" x1="861.306" y1="433.828" x2="861.306" y2="430.437" gradientUnits="userSpaceOnUse">
<stop stop-color="#0F2C3A"/>
<stop offset="1" stop-color="#1D3F4F"/>
</linearGradient>
<linearGradient id="paint17_linear_276_3462" x1="1097.81" y1="549.744" x2="1097.81" y2="447.023" gradientUnits="userSpaceOnUse">
<stop stop-color="#0F2C3A"/>
<stop offset="1" stop-color="#1D3F4F"/>
</linearGradient>
<linearGradient id="paint18_linear_276_3462" x1="1013.81" y1="531.049" x2="1013.81" y2="313.207" gradientUnits="userSpaceOnUse">
<stop stop-color="#0F2C3A"/>
<stop offset="1" stop-color="#1D3F4F"/>
</linearGradient>
<linearGradient id="paint19_linear_276_3462" x1="1076.9" y1="422.132" x2="1076.9" y2="331.406" gradientUnits="userSpaceOnUse">
<stop stop-color="#0F2C3A"/>
<stop offset="1" stop-color="#1D3F4F"/>
</linearGradient>
<linearGradient id="paint20_linear_276_3462" x1="985.175" y1="394.239" x2="1002.36" y2="394.247" gradientUnits="userSpaceOnUse">
<stop stop-color="#0F2C3A"/>
<stop offset="1" stop-color="#1D3F4F"/>
</linearGradient>
<linearGradient id="paint21_linear_276_3462" x1="971.557" y1="441.455" x2="989.763" y2="441.469" gradientUnits="userSpaceOnUse">
<stop stop-color="#0F2C3A"/>
<stop offset="1" stop-color="#1D3F4F"/>
</linearGradient>
<linearGradient id="paint22_linear_276_3462" x1="966.386" y1="547.032" x2="966.386" y2="491.965" gradientUnits="userSpaceOnUse">
<stop stop-color="#0F2C3A"/>
<stop offset="1" stop-color="#1D3F4F"/>
</linearGradient>
<linearGradient id="paint23_linear_276_3462" x1="966.581" y1="491.923" x2="968.599" y2="491.933" gradientUnits="userSpaceOnUse">
<stop stop-color="#406474"/>
<stop offset="1" stop-color="#1D3F4F"/>
</linearGradient>
<linearGradient id="paint24_linear_276_3462" x1="1253.23" y1="603.656" x2="1253.23" y2="412.248" gradientUnits="userSpaceOnUse">
<stop stop-color="#0F2C3A"/>
<stop offset="1" stop-color="#1D3F4F"/>
</linearGradient>
<linearGradient id="paint25_linear_276_3462" x1="1417.21" y1="572.965" x2="1417.21" y2="517.898" gradientUnits="userSpaceOnUse">
<stop stop-color="#0F2C3A"/>
<stop offset="1" stop-color="#1D3F4F"/>
</linearGradient>
<linearGradient id="paint26_linear_276_3462" x1="1338.02" y1="531.05" x2="1338.02" y2="475.992" gradientUnits="userSpaceOnUse">
<stop stop-color="#0F2C3A"/>
<stop offset="1" stop-color="#1D3F4F"/>
</linearGradient>
<linearGradient id="paint27_linear_276_3462" x1="1231.11" y1="534.301" x2="1231.11" y2="297.611" gradientUnits="userSpaceOnUse">
<stop stop-color="#0F2C3A"/>
<stop offset="1" stop-color="#1D3F4F"/>
</linearGradient>
<linearGradient id="paint28_linear_276_3462" x1="1354.68" y1="361.573" x2="1363.37" y2="361.575" gradientUnits="userSpaceOnUse">
<stop stop-color="#0F2C3A"/>
<stop offset="1" stop-color="#1D3F4F"/>
</linearGradient>
<linearGradient id="paint29_linear_276_3462" x1="1317.67" y1="394.496" x2="1328.46" y2="394.499" gradientUnits="userSpaceOnUse">
<stop stop-color="#0F2C3A"/>
<stop offset="1" stop-color="#1D3F4F"/>
</linearGradient>
<linearGradient id="paint30_linear_276_3462" x1="779.34" y1="353.807" x2="811.234" y2="353.829" gradientUnits="userSpaceOnUse">
<stop stop-color="#0F2C3A"/>
<stop offset="1" stop-color="#1D3F4F"/>
</linearGradient>
<linearGradient id="paint31_linear_276_3462" x1="793.516" y1="216.889" x2="813.836" y2="216.9" gradientUnits="userSpaceOnUse">
<stop stop-color="#0F2C3A"/>
<stop offset="1" stop-color="#1D3F4F"/>
</linearGradient>
<linearGradient id="paint32_linear_276_3462" x1="814.488" y1="292.136" x2="865.179" y2="292.2" gradientUnits="userSpaceOnUse">
<stop stop-color="#0F2C3A"/>
<stop offset="1" stop-color="#1D3F4F"/>
</linearGradient>
<linearGradient id="paint33_linear_276_3462" x1="731.37" y1="647.871" x2="734.287" y2="647.388" gradientUnits="userSpaceOnUse">
<stop stop-color="#406474"/>
<stop offset="1" stop-color="#1D3F4F"/>
</linearGradient>
<linearGradient id="paint34_linear_276_3462" x1="725.203" y1="545.273" x2="725.203" y2="550.786" gradientUnits="userSpaceOnUse">
<stop stop-color="#406474"/>
<stop offset="1" stop-color="#1D3F4F"/>
</linearGradient>
<linearGradient id="paint35_linear_276_3462" x1="377.581" y1="124.847" x2="407.867" y2="121.664" gradientUnits="userSpaceOnUse">
<stop stop-color="#406474"/>
<stop offset="1" stop-color="#1D3F4F"/>
</linearGradient>
<linearGradient id="paint36_linear_276_3462" x1="432.343" y1="411.045" x2="461.704" y2="411.056" gradientUnits="userSpaceOnUse">
<stop stop-color="#0F2C3A"/>
<stop offset="1" stop-color="#1D3F4F"/>
</linearGradient>
<linearGradient id="paint37_linear_276_3462" x1="468.343" y1="459.132" x2="497.704" y2="459.147" gradientUnits="userSpaceOnUse">
<stop stop-color="#0F2C3A"/>
<stop offset="1" stop-color="#1D3F4F"/>
</linearGradient>
<linearGradient id="paint38_linear_276_3462" x1="572.255" y1="415.833" x2="586.786" y2="415.839" gradientUnits="userSpaceOnUse">
<stop stop-color="#0F2C3A"/>
<stop offset="1" stop-color="#1D3F4F"/>
</linearGradient>
<linearGradient id="paint39_linear_276_3462" x1="552.867" y1="352.704" x2="611.837" y2="352.738" gradientUnits="userSpaceOnUse">
<stop stop-color="#0F2C3A"/>
<stop offset="1" stop-color="#1D3F4F"/>
</linearGradient>
<linearGradient id="paint40_linear_276_3462" x1="611.319" y1="764.095" x2="611.319" y2="-1.93561" gradientUnits="userSpaceOnUse">
<stop stop-color="#5082C2" stop-opacity="0"/>
<stop offset="0.04" stop-color="#498AC6" stop-opacity="0.08"/>
<stop offset="0.14" stop-color="#38A0D3" stop-opacity="0.29"/>
<stop offset="0.25" stop-color="#29B4DF" stop-opacity="0.48"/>
<stop offset="0.36" stop-color="#1CC5E9" stop-opacity="0.64"/>
<stop offset="0.48" stop-color="#12D2F1" stop-opacity="0.77"/>
<stop offset="0.59" stop-color="#0ADDF7" stop-opacity="0.87"/>
<stop offset="0.71" stop-color="#04E5FB" stop-opacity="0.94"/>
<stop offset="0.84" stop-color="#01E9FE" stop-opacity="0.99"/>
<stop offset="0.98" stop-color="#24BBE3"/>
<stop offset="0.99" stop-color="#4591CA"/>
<stop offset="1" stop-color="#5083C2"/>
</linearGradient>
<linearGradient id="paint41_linear_276_3462" x1="472.261" y1="543.579" x2="472.261" y2="354.145" gradientUnits="userSpaceOnUse">
<stop stop-color="#0F2C3A"/>
<stop offset="1" stop-color="#1D3F4F"/>
</linearGradient>
<linearGradient id="paint42_linear_276_3462" x1="655.318" y1="403.084" x2="669.848" y2="403.089" gradientUnits="userSpaceOnUse">
<stop stop-color="#0F2C3A"/>
<stop offset="1" stop-color="#1D3F4F"/>
</linearGradient>
<linearGradient id="paint43_linear_276_3462" x1="679.755" y1="383.659" x2="694.286" y2="383.664" gradientUnits="userSpaceOnUse">
<stop stop-color="#0F2C3A"/>
<stop offset="1" stop-color="#1D3F4F"/>
</linearGradient>
<linearGradient id="paint44_linear_276_3462" x1="345.765" y1="345.854" x2="380.154" y2="345.887" gradientUnits="userSpaceOnUse">
<stop stop-color="#0F2C3A"/>
<stop offset="1" stop-color="#1D3F4F"/>
</linearGradient>
<linearGradient id="paint45_linear_276_3462" x1="364.033" y1="491.913" x2="410.533" y2="491.955" gradientUnits="userSpaceOnUse">
<stop stop-color="#0F2C3A"/>
<stop offset="1" stop-color="#1D3F4F"/>
</linearGradient>
<linearGradient id="paint46_linear_276_3462" x1="327.822" y1="473.955" x2="352.129" y2="473.965" gradientUnits="userSpaceOnUse">
<stop stop-color="#0F2C3A"/>
<stop offset="1" stop-color="#1D3F4F"/>
</linearGradient>
<linearGradient id="paint47_linear_276_3462" x1="133.522" y1="359.693" x2="163.136" y2="359.713" gradientUnits="userSpaceOnUse">
<stop stop-color="#0F2C3A"/>
<stop offset="1" stop-color="#1D3F4F"/>
</linearGradient>
<linearGradient id="paint48_linear_276_3462" x1="154.159" y1="457.419" x2="203.519" y2="457.459" gradientUnits="userSpaceOnUse">
<stop stop-color="#0F2C3A"/>
<stop offset="1" stop-color="#1D3F4F"/>
</linearGradient>
<linearGradient id="paint49_linear_276_3462" x1="137.261" y1="534.764" x2="137.261" y2="432.043" gradientUnits="userSpaceOnUse">
<stop stop-color="#0F2C3A"/>
<stop offset="1" stop-color="#1D3F4F"/>
</linearGradient>
<linearGradient id="paint50_linear_276_3462" x1="137.456" y1="432.002" x2="139.474" y2="432.011" gradientUnits="userSpaceOnUse">
<stop stop-color="#0F2C3A"/>
<stop offset="1" stop-color="#1D3F4F"/>
</linearGradient>
<linearGradient id="paint51_linear_276_3462" x1="137.759" y1="433.828" x2="137.759" y2="430.437" gradientUnits="userSpaceOnUse">
<stop stop-color="#0F2C3A"/>
<stop offset="1" stop-color="#1D3F4F"/>
</linearGradient>
<linearGradient id="paint52_linear_276_3462" x1="374.261" y1="549.744" x2="374.261" y2="447.023" gradientUnits="userSpaceOnUse">
<stop stop-color="#0F2C3A"/>
<stop offset="1" stop-color="#1D3F4F"/>
</linearGradient>
<linearGradient id="paint53_linear_276_3462" x1="290.261" y1="531.049" x2="290.261" y2="313.207" gradientUnits="userSpaceOnUse">
<stop stop-color="#0F2C3A"/>
<stop offset="1" stop-color="#1D3F4F"/>
</linearGradient>
<linearGradient id="paint54_linear_276_3462" x1="353.35" y1="422.132" x2="353.35" y2="331.406" gradientUnits="userSpaceOnUse">
<stop stop-color="#0F2C3A"/>
<stop offset="1" stop-color="#1D3F4F"/>
</linearGradient>
<linearGradient id="paint55_linear_276_3462" x1="261.628" y1="394.239" x2="278.809" y2="394.247" gradientUnits="userSpaceOnUse">
<stop stop-color="#0F2C3A"/>
<stop offset="1" stop-color="#1D3F4F"/>
</linearGradient>
<linearGradient id="paint56_linear_276_3462" x1="248.01" y1="441.455" x2="266.216" y2="441.469" gradientUnits="userSpaceOnUse">
<stop stop-color="#0F2C3A"/>
<stop offset="1" stop-color="#1D3F4F"/>
</linearGradient>
<linearGradient id="paint57_linear_276_3462" x1="242.839" y1="547.032" x2="242.839" y2="491.965" gradientUnits="userSpaceOnUse">
<stop stop-color="#0F2C3A"/>
<stop offset="1" stop-color="#1D3F4F"/>
</linearGradient>
<linearGradient id="paint58_linear_276_3462" x1="243.034" y1="491.923" x2="245.052" y2="491.933" gradientUnits="userSpaceOnUse">
<stop stop-color="#406474"/>
<stop offset="1" stop-color="#1D3F4F"/>
</linearGradient>
<linearGradient id="paint59_linear_276_3462" x1="529.683" y1="603.656" x2="529.683" y2="412.248" gradientUnits="userSpaceOnUse">
<stop stop-color="#0F2C3A"/>
<stop offset="1" stop-color="#1D3F4F"/>
</linearGradient>
<linearGradient id="paint60_linear_276_3462" x1="693.659" y1="572.965" x2="693.659" y2="517.898" gradientUnits="userSpaceOnUse">
<stop stop-color="#0F2C3A"/>
<stop offset="1" stop-color="#1D3F4F"/>
</linearGradient>
<linearGradient id="paint61_linear_276_3462" x1="614.472" y1="531.05" x2="614.472" y2="475.992" gradientUnits="userSpaceOnUse">
<stop stop-color="#0F2C3A"/>
<stop offset="1" stop-color="#1D3F4F"/>
</linearGradient>
<linearGradient id="paint62_linear_276_3462" x1="507.566" y1="534.301" x2="507.566" y2="297.611" gradientUnits="userSpaceOnUse">
<stop stop-color="#0F2C3A"/>
<stop offset="1" stop-color="#1D3F4F"/>
</linearGradient>
<linearGradient id="paint63_linear_276_3462" x1="631.128" y1="361.573" x2="639.821" y2="361.575" gradientUnits="userSpaceOnUse">
<stop stop-color="#0F2C3A"/>
<stop offset="1" stop-color="#1D3F4F"/>
</linearGradient>
<linearGradient id="paint64_linear_276_3462" x1="594.119" y1="394.496" x2="604.91" y2="394.499" gradientUnits="userSpaceOnUse">
<stop stop-color="#0F2C3A"/>
<stop offset="1" stop-color="#1D3F4F"/>
</linearGradient>
<linearGradient id="paint65_linear_276_3462" x1="55.7928" y1="353.807" x2="87.6872" y2="353.829" gradientUnits="userSpaceOnUse">
<stop stop-color="#0F2C3A"/>
<stop offset="1" stop-color="#1D3F4F"/>
</linearGradient>
<linearGradient id="paint66_linear_276_3462" x1="69.9692" y1="216.889" x2="90.2895" y2="216.9" gradientUnits="userSpaceOnUse">
<stop stop-color="#0F2C3A"/>
<stop offset="1" stop-color="#1D3F4F"/>
</linearGradient>
<linearGradient id="paint67_linear_276_3462" x1="90.9414" y1="292.136" x2="141.632" y2="292.2" gradientUnits="userSpaceOnUse">
<stop stop-color="#0F2C3A"/>
<stop offset="1" stop-color="#1D3F4F"/>
</linearGradient>
<linearGradient id="paint68_linear_276_3462" x1="7.82288" y1="647.871" x2="10.74" y2="647.388" gradientUnits="userSpaceOnUse">
<stop stop-color="#406474"/>
<stop offset="1" stop-color="#1D3F4F"/>
</linearGradient>
<linearGradient id="paint69_linear_276_3462" x1="1.65569" y1="545.273" x2="1.65569" y2="550.786" gradientUnits="userSpaceOnUse">
<stop stop-color="#406474"/>
<stop offset="1" stop-color="#1D3F4F"/>
</linearGradient>
</defs>
</svg>
