<svg width="400" height="400" viewBox="0 0 400 400" fill="none" xmlns="http://www.w3.org/2000/svg">
<g clip-path="url(#clip0_1_718)">
<path d="M268.709 376.484C310.37 360.537 345.163 330.583 367.126 291.767C389.089 252.951 396.827 207.684 389.035 163.776C381.224 119.868 358.373 80.0379 324.396 51.1526C290.401 22.2854 247.417 6.13932 202.82 5.52319C158.224 4.90707 114.805 19.8571 80.0307 47.782C45.2559 75.7069 21.3177 114.885 12.2933 158.557C3.28707 202.23 9.77449 247.696 30.6502 287.11C51.5259 326.523 85.4852 357.42 126.675 374.509L136.37 351.114C100.616 336.291 71.1331 309.453 53.0118 275.24C34.8906 241.027 29.2549 201.577 37.0832 163.668C44.9116 125.758 65.6967 91.7442 95.8687 67.5161C126.041 43.2698 163.733 30.295 202.44 30.8386C241.147 31.3822 278.459 45.39 307.96 70.4517C337.461 95.5134 357.304 130.089 364.064 168.198C370.841 206.307 364.118 245.594 345.054 279.299C325.991 312.987 295.783 338.991 259.631 352.836L268.673 376.484H268.709Z" fill="url(#paint0_linear_1_718)"/>
<path d="M338.676 142.466L338.458 133.677L329.669 133.622C314.955 133.55 300.44 135.58 286.359 139.711C272.968 143.625 260.192 149.37 248.377 156.8C248.033 157.017 247.689 157.235 247.362 157.452C240.676 115.719 213.874 88.0837 207.568 82.1037L201.208 76.0512L194.956 82.2306C184.536 92.5234 175.675 104.266 168.644 117.15C161.939 129.382 156.974 142.484 153.857 156.075C153.73 156.655 153.603 157.216 153.494 157.796C152.987 157.452 152.461 157.126 151.936 156.8C140.139 149.37 127.363 143.625 113.972 139.711C99.8916 135.58 85.2858 133.568 70.6619 133.622L61.8731 133.677L61.6557 142.466C61.3838 152.994 62.2899 207.485 106.252 244.923C135.5 269.822 168.39 274.407 185.406 274.932H185.714L193.85 274.642V328.1L165.418 356.532C163.099 355.445 160.525 354.847 157.789 354.847C147.786 354.847 139.668 362.965 139.668 372.968C139.668 382.971 147.786 391.09 157.789 391.09C167.792 391.09 175.91 382.971 175.91 372.968C175.91 370.341 175.349 367.822 174.316 365.575L193.85 346.04V359.522C186.964 362.077 182.09 368.71 182.09 376.484C182.09 386.487 190.19 394.605 200.211 394.605C210.232 394.605 218.332 386.487 218.332 376.484C218.332 368.692 213.421 362.059 206.535 359.504V346.022L225.671 365.158C224.53 367.514 223.895 370.178 223.895 372.968C223.895 382.971 231.996 391.09 242.017 391.09C252.038 391.09 260.138 382.971 260.138 372.968C260.138 362.965 252.02 354.847 242.017 354.847C239.443 354.847 237.015 355.373 234.804 356.351L209.163 330.728L206.535 328.082V274.642L214.617 274.932H214.925C231.923 274.407 264.831 269.822 294.061 244.923C338.005 207.503 338.929 153.012 338.676 142.466ZM118.013 231.115C87.5691 205.202 81.2085 169.575 80.0125 152.016C89.7799 152.632 99.4566 154.335 108.88 157.09C120.659 160.551 131.912 165.607 142.295 172.148C145.793 174.323 148.891 176.697 151.646 179.143C152.063 192.335 155.161 202.846 156.992 209.007L157.427 210.493C163.062 229.865 172.503 245.177 181.836 256.612C166.415 255.542 140.846 250.577 118.013 231.115ZM213.168 196.449L212.443 197.79C206.481 208.626 202.603 219.409 200.157 229.502C197.728 219.409 193.85 208.626 187.888 197.79L187.145 196.413C184.083 190.795 178.882 181.209 169.876 171.605C170.093 167.944 170.619 164.102 171.525 160.116C174.261 148.138 178.647 136.613 184.536 125.848C189.248 117.223 194.883 109.177 201.353 101.838C211.591 113.58 229.006 138.243 230.618 171.423C221.503 181.1 216.248 190.777 213.168 196.449ZM282.318 231.115C260.047 250.088 235.167 255.289 219.655 256.521C231.18 242.405 245.895 218.466 248.486 186.084C248.667 183.692 248.794 181.318 248.848 178.98C251.567 176.588 254.611 174.287 258.018 172.148C268.419 165.607 279.673 160.551 291.452 157.09C300.875 154.335 310.551 152.632 320.319 152.016C319.105 169.575 312.726 205.22 282.318 231.115Z" fill="#EF7D7E"/>
</g>
<defs>
<linearGradient id="paint0_linear_1_718" x1="8.33936" y1="190.994" x2="391.988" y2="190.994" gradientUnits="userSpaceOnUse">
<stop stop-color="#406474"/>
<stop offset="1" stop-color="#EF7D7E"/>
</linearGradient>
<clipPath id="clip0_1_718">
<rect width="383.96" height="389.1" fill="white" transform="translate(8.18555 5.50513)"/>
</clipPath>
</defs>
</svg>
